<?xml version="1.0" encoding="utf-8"?>
<!-- Generator: Adobe Illustrator 19.2.1, SVG Export Plug-In . SVG Version: 6.00 Build 0)  -->
<svg version="1.1" id="layer" xmlns="http://www.w3.org/2000/svg" xmlns:xlink="http://www.w3.org/1999/xlink" x="0px" y="0px"
	 viewBox="0 0 652 652" style="enable-background:new 0 0 652 652;" xml:space="preserve">
<style type="text/css">
	.st0{fill:#666467;}
	.st1{fill:#04976D;}
	.st2{fill:#F58220;}
	.st3{fill:#FFD109;}
</style>
<path class="st0" d="M618.3,332.5l0-53c0-0.8-0.7-1.5-1.5-1.5h-3.9c-0.8,0-1.5,0.7-1.5,1.5v33.2c-5.2-6.1-12.4-9.3-21-9.3
	c-8.3,0-15.5,3-20.7,8.5c-5,5.3-7.7,12.7-7.7,20.7c0,7.7,2.6,14.9,7.4,20.2c5.2,5.8,12.3,8.8,20.6,8.8c6.8,0,12.7-1.8,17.4-5.4
	C618,348.2,618.3,335,618.3,332.5z M611.3,332.6c0,6.4-1.9,12.1-5.2,16.1c-3.7,4.4-9.3,6.8-16,6.8c-13.9,0-21.4-11.8-21.4-22.8
	c0-6.4,1.9-12.1,5.3-16.2c3.7-4.5,9.2-6.9,15.8-6.9c6.4,0,11.9,2.4,15.8,6.9C609.3,320.5,611.3,326.3,611.3,332.6z M531.8,307.1
	c-0.1-0.4-0.4-0.8-0.8-0.9c-3.8-1.9-8-2.8-12.7-2.8c-3.4,0-11.3,0-17.5,5.6c-6.5,5.9-6.9,14.3-6.8,16.8v0c0,0,0,0,0,0v34.3
	c0,0.8,0.7,1.5,1.5,1.5h3.9c0.8,0,1.5-0.7,1.5-1.5v-34.3c0,0,0,0,0-0.1v-0.1c0-2,0.3-8.8,5.8-13.1c4-3.1,8.6-3.1,11.1-3.1
	c0,0,0,0,0,0c4.4,0,7.9,1.3,10.1,2.4c0.7,0.4,1.6,0.1,2-0.6l1.7-2.9C531.9,307.9,532,307.5,531.8,307.1z M547.6,303.3h-3.9
	c-0.8,0-1.5,0.7-1.5,1.5v55.3c0,0.8,0.7,1.5,1.5,1.5h3.9c0.8,0,1.5-0.7,1.5-1.5v-55.3C549.1,304,548.4,303.3,547.6,303.3z
	 M481.4,319.8h-27.5c-0.8,0-1.4,0.6-1.4,1.4v4.2c0,0.8,0.6,1.4,1.4,1.4h20.5c0.8,0,1.4,0.6,1.4,1.4V353c0,0.7-0.5,1.2-1.1,1.4
	c-5.6,1.3-11.2,1.6-16.8,1.1c-5.3-0.5-17.8-1.8-26.2-10.6c-9.7-10.3-13.5-30.1-2.7-44.2c5.3-6.9,13.3-11.4,22.4-12.6
	c9.3-1.2,18.5,1.1,26.2,6.6c0.6,0.5,1.5,0.3,2-0.3l2.5-3.3c0.5-0.6,0.4-1.6-0.3-2c-9.1-6.6-20.2-9.4-31.3-7.9
	c-11,1.4-20.6,6.8-27,15.2c-13.1,17-8.5,40.9,3.2,53.2c10.1,10.7,24.4,12.2,30.6,12.8c2,0.2,3.9,0.3,5.9,0.3
	c5.8,0,11.6-0.9,17.2-2.6l1.5-0.4c0.6-0.2,1-0.7,1-1.3v-37.1C482.8,320.5,482.1,319.8,481.4,319.8z M395.7,312.2
	c-5.1-5.8-12.3-8.9-20.6-8.9c-8.3,0-15.5,3-20.7,8.5c-5,5.3-7.7,12.7-7.7,20.7c0,7.7,2.6,14.9,7.4,20.2c5.2,5.8,12.3,8.8,20.7,8.8
	c8.9,0,16.4-3.2,21.5-9.2c4.4-5.2,6.9-12.3,6.9-19.9C403,324.7,400.4,317.5,395.7,312.2z M396,332.6c0,6.4-1.9,12.1-5.2,16.1
	c-3.7,4.4-9.3,6.8-16,6.8c-13.9,0-21.4-11.8-21.4-22.8c0-6.4,1.9-12.1,5.3-16.2c3.7-4.5,9.2-6.9,15.8-6.9c6.4,0,11.9,2.4,15.8,6.9
	C394,320.5,396,326.3,396,332.6z M203.1,281.7c-1-2-3-3.3-5.2-3.2c-2,0.1-3.7,1.3-4.6,3.2l-33.8,77.9c-0.4,0.9,0.3,1.9,1.3,1.9h4.2
	c0.6,0,1.1-0.3,1.3-0.8c3.5-8,6.9-16,10.4-24c20.6,0,22.5,0,43.1,0c3.5,8,6.9,16,10.4,24c0.2,0.5,0.7,0.8,1.3,0.8h4.2
	c1,0,1.7-1,1.3-1.9L203.1,281.7z M179.5,330l18.7-43.1c6.2,14.4,12.5,28.8,18.7,43.1L179.5,330z M337.7,351.8
	c-0.1-0.1-0.3-0.3-0.7-0.4c-0.4-0.1-0.7,0.1-0.8,0.2c0,0,0,0,0,0c-6.1,3.7-13.4,3.9-17.4,0.1c-2.4-2.3-3.1-5.6-3.2-7.6
	c0-0.1,0-0.1,0-0.2v-33.5h21.6c1.1,0,2-0.9,2-2c0-0.4,0-2.9,0-2.9c0-1.1-0.9-2-2-2h-21.6c0-4.2,0-8.4,0-12.6c0-1.1-0.9-2-2-2h-2.9
	c-1.1,0-2,0.9-2,2v53.2c0,0.5,0,1.2,0.1,2c0.4,3.5,1.8,6,2.4,6.9c1.9,3.1,4.3,4.9,5.1,5.4c3.8,2.6,7.6,2.8,10.3,2.9
	c2.6,0.1,8.7-1,13.6-4.1c0.3-0.2,0.4-0.4,0.4-0.4c0-0.1,0.1-0.2,0.1-0.4c0-0.3-0.1-0.5-0.2-0.5C339.5,354.7,338.6,353.2,337.7,351.8
	z M297.3,332.3l0-26.1c0-0.8-0.7-1.5-1.5-1.5h-3.9c-0.8,0-1.5,0.7-1.5,1.5l0,26c0,2-0.4,12.4-8.7,18.4c-3.5,2.5-7.7,3.8-12.5,3.8
	c-4.8,0.1-8.9-1-12.3-3.3c-8.9-6-9.1-17.6-9.1-18.9l0.1-26c0-0.4-0.2-0.8-0.4-1.1c-0.3-0.3-0.7-0.4-1.1-0.4h-3.9
	c-0.4,0-0.8,0.2-1.1,0.4c-0.3,0.3-0.4,0.7-0.4,1.1l0,26c0,0.1,0,0.1,0,0.2c0,0.1,0,0.1,0,0.2c0,7.7,2.6,14.9,7.4,20.2
	c5.2,5.8,12.3,8.8,20.7,8.8c8.9,0,16.4-3.2,21.5-9.2c4.4-5.2,6.9-12.3,6.9-19.9C297.3,332.4,297.3,332.4,297.3,332.3z"/>
<path class="st1" d="M545.1,283.6c-2,1.7-2.7,3.8-2.9,4.7c0,2.9,0,5.7,0,8.6c0,0.2,0.1,0.3,0.2,0.1c0.5-1.4,2.1-4.6,5.6-5.9
	c1.2-0.4,2.4-0.5,3.3-0.5c0-3.1,0-6.2,0-9.2C550.5,281.3,547.6,281.4,545.1,283.6z M89.2,313.8c2.3,0.1,5.3-0.1,8.5-1.2
	c10.7-3.8,14.6-14.8,15.2-16.7c0,7.9,0,15.9,0,23.8c-0.6,2.2-2.4,7.6-7.5,12.1c-6.6,5.7-14.1,5.9-16.1,5.9
	C89.2,329.7,89.2,321.7,89.2,313.8z"/>
<path class="st2" d="M112.9,355.5c2.3,0.1,5.3-0.2,8.5-1.3c10.7-3.8,14.6-14.8,15.2-16.7c0,7.9,0,15.9,0,23.8
	c-0.6,2.2-2.4,7.6-7.5,12.1c-6.6,5.7-14.1,5.9-16.1,5.9C112.9,371.4,112.9,363.5,112.9,355.5z M65.6,319.5c-2.3-0.1-5.2,0.3-8.4,1.4
	c-10.5,3.8-14.6,14.7-15.3,16.6c0-8,0-15.9,0-23.8c0.6-2.2,2.7-7.5,7.7-11.9c6.5-5.7,13.9-6,15.9-6
	C65.6,303.7,65.6,311.6,65.6,319.5z"/>
<path class="st3" d="M136.6,277.9c-2.3-0.1-5.3,0.1-8.5,1.3c-10.7,3.8-14.5,14.8-15.2,16.6c0-7.9,0-15.8,0-23.8
	c0.6-2.2,2.4-7.6,7.5-12.1c6.6-5.7,14.1-6,16.1-6C136.6,261.9,136.6,269.9,136.6,277.9z M89.2,361.3c-2.3-0.1-5.2,0.3-8.4,1.4
	c-10.5,3.8-14.6,14.7-15.3,16.6c0-8,0-15.9,0-23.8c0.6-2.2,2.7-7.5,7.7-11.9c6.5-5.7,13.9-6,15.9-6
	C89.2,345.5,89.2,353.4,89.2,361.3z"/>
<path class="st0" d="M41.9,337.6c-7.9-6-15.8-12-23.6-18c0-7.9,0-15.8,0-23.8c7.9,6,15.8,12,23.6,18C41.9,321.7,42,329.6,41.9,337.6
	z"/>
<path class="st0" d="M89.2,313.9c-7.9-6-15.8-12-23.6-18c0-7.9,0-15.8,0-23.8c7.9,6,15.8,12,23.6,18C89.2,298,89.3,305.9,89.2,313.9
	z M65.6,379.4c-7.9-6-15.8-12-23.6-18c0-7.9,0-15.8,0-23.8c7.9,6,15.8,12,23.6,18C65.6,363.5,65.6,371.4,65.6,379.4z M112.9,379.4
	c-7.9-6-15.8-12-23.6-18c0-7.9,0-15.8,0-23.8c7.9,6,15.8,12,23.6,18C112.9,363.5,112.9,371.4,112.9,379.4z"/>
</svg>
