<?xml version="1.0" encoding="UTF-8"?>
<svg width="450.79099" height="159.1626" xmlns="http://www.w3.org/2000/svg" id="a" viewBox="0 0 450.79099 159.1626">
  <defs>
    <style>.b,.c{fill:#00354a;}.d,.e{fill:#4b4b4d;}.e,.c{fill-rule:evenodd;}</style>
  </defs>
  <polygon class="e" points="105.626 159.1626 72.3521 159.1626 0 159.1626 33.272 101.5356 46.3003 124.1001 39.0835 136.5981 92.5982 136.5981 105.626 159.1626 105.626 159.1626"></polygon>
  <path class="c" d="m91.896,0l13.0254,22.56249-19.5395,33.84421,59.3222,102.7559h-26.0522c-15.4341-26.7325-30.8653-53.459-46.2998-80.1915l-19.5401,33.8458-13.0273-22.5625C57.1582,60.1606,74.5235,30.0883,91.896,0h0Z"></path>
  <path class="d" d="m205.09379,59.70549h-33.8589v44.336h37.4355c2.2998,0,4.2285-.23439,5.7823-.70319,1.5537-.4687,2.8105-1.2246,3.7685-2.2675.96-1.045,1.6514-2.3848,2.0772-4.0254.4257-1.6387.63911-3.6504.63911-6.0371,0-1.959-.15041-3.5762-.44721-4.8555-.2989-1.2774-.7027-2.3086-1.2154-3.0977-.5107-.789-1.1279-1.373-1.852-1.7578-.7227-.38281-1.5103-.6582-2.3638-.8301.6396-.2988,1.1826-.6171,1.6299-.957.4472-.3418.8188-.8423,1.1177-1.5015.2983-.6611.5107-1.5556.6391-2.6835.1265-1.1285.1919-2.6514.1919-4.5674,0-1.9595-.2139-3.6309-.6391-5.0161-.4258-1.3838-1.1612-2.523-2.2042-3.4175-1.04289-.8946-2.4394-1.55371-4.185-1.9795-1.7456-.4268-3.917-.63921-6.5156-.63921h0Zm-23.1905,16.67341v-7.8575h21.5298c1.4903,0,2.62941.2989,3.417.8946.7881.5957,1.1826,1.6191,1.1826,3.0659,0,1.4902-.40519,2.5137-1.2148,3.0659-.8076.5542-1.916.8311-3.3213.8311h-21.5933Zm0,18.7817v-9.9004h22.8067c1.789,0,3.1636.3184,4.1216.957.958.6387,1.436,1.875,1.436,3.7051,0,1.961-.4473,3.3223-1.3403,4.0899-.8946.7656-2.1729,1.1484-3.8335,1.1484h-23.1905Zm95.3155-.3184c0-2.6406-.3516-4.5898-1.0528-5.8476-.7031-1.2559-1.6718-2.1172-2.9062-2.584,1.4043-.8945,2.3398-2.0664,2.8105-3.5156.4688-1.4473.70121-3.4278.70121-5.94v-3.0678c0-2.5552-.29881-4.7378-.89451-6.5484-.5957-1.8091-1.5528-3.2798-2.8731-4.4077-1.3203-1.1284-3.0019-1.9487-5.0469-2.4595-2.0449-.5107-4.4941-.76611-7.3476-.76611h-32.9004v44.336h10.6699v-13.22459h20.9512c2.4727,0,4.293.5117,5.4648,1.5332,1.17,1.02339,1.7559,2.6191,1.7559,4.791v6.90039h10.668v-9.19929h0Zm-11.0508-19.0376c0,1.6612-.3731,2.8218-1.1192,3.481-.746.6602-2.0546.9902-3.9296.9902h-22.93169v-9.96531h22.67779c2,0,3.3867.32961,4.1523.99071.7656.6587,1.1504,1.8614,1.1504,3.6089v.8945h0Zm37.9453-16.09911l-22.8691,44.336h12.3925c6.1856-12.15819,12.38281-23.98439,18.7813-36.03079h.5137c6.1503,12.0249,12.33781,23.98779,18.3964,36.03079h12.4571l-22.8692-44.336h-16.8027Zm44.0156,0h-12.2636l22.1035,44.336h16.8652l22.10351-44.336h-12.13871l-18.3339,36.66991-18.336-36.66991h0Zm79.793,9.83741c2.68361,0,4.8242.1177,6.418.3511,1.59761.2354,2.8242.7241,3.6757,1.4707.8516.7441,1.4161,1.7979,1.6934,3.1616.2773,1.3638.4141,3.1509.4141,5.3667v4.5996c0,2.12889-.1368,3.834-.4141,5.1094-.2773,1.2793-.8418,2.26949-1.6934,2.9727-.8515.7011-2.0664,1.1601-3.6425,1.373-1.5743.2129-3.6621.3203-6.2598.3203h-8.4336c-2.4258,0-4.36519-.1289-5.8125-.3847-1.4473-.2559-2.5566-.7344-3.3223-1.4375-.7675-.7032-1.2773-1.6719-1.5332-2.90631-.2558-1.23629-.3847-2.85349-.3847-4.85549v-4.5996c0-2.2153.1289-4.0044.3847-5.3662.2559-1.3633.7774-2.4282,1.5645-3.1943s1.9375-1.2876,3.4492-1.565c1.5117-.2768,3.5254-.416,6.03911-.416h7.85739Zm.3828,34.49859c4.5996,0,8.3574-.22269,11.2754-.67,2.918-.44719,5.207-1.34179,6.8672-2.68359,1.6621-1.3437,2.8008-3.2578,3.418-5.75.6191-2.4921.9257-5.7832.9257-9.8691v-5.3691c0-4.002-.3066-7.314-.9257-9.93221-.6172-2.61909-1.7442-4.685-3.38479-6.19719-1.64061-1.5122-3.90821-2.5659-6.80471-3.1621-2.8965-.59571-6.623-.8946-11.1777-.8946h-9.39259c-4.34381,0-7.90041.2881-10.668.8623-2.76951.5757-4.93161,1.6187-6.48441,3.1309-1.55459,1.5122-2.6191,3.5874-3.1953,6.228-.5742,2.6402-.86129,6.0269-.86129,10.1582v5.3672c0,3.832.29879,6.9629.89449,9.3887.5957,2.4297,1.6719,4.3457,3.2246,5.75,1.5567,1.4062,3.6954,2.3633,6.42191,2.875,2.72459.5117,6.21679.76759,10.47659.76759h9.3906Z"></path>
  <path class="b" d="m192.46139,113.8481h-21.2265v3.9902h8.2632v15.6504h4.6987v-15.6504h8.2646v-3.9902h0Zm60.39411,0v19.6406h20.09369v-3.9336h-15.3964v-4.2441h14.916v-3.9356h-14.916v-3.623h15.3964v-3.9043h-20.09369Zm89.85349,0l-10.1328,19.6406h5.4902l2.4063-4.7265h11.914l2.377,4.7265h5.5195l-10.1308-19.6406h-7.4434Zm3.9043,3.6797l3.7363,7.3008h-7.8398l3.8789-7.3008h.2246Zm73.3848-3.6797v19.6406h4.6992v-14.4336l8.1211,14.4336h5.0957l8.15041-14.4336v14.4336h4.72459v-19.6406h-7.0449l-8.3789,14.4609-8.09379-14.4609h-7.27341Z"></path>
</svg>
