<?xml version="1.0" encoding="utf-8"?>
<!-- Generator: Adobe Illustrator 19.0.0, SVG Export Plug-In . SVG Version: 6.00 Build 0)  -->
<svg width="805" height="698" version="1.1" id="layer" xmlns="http://www.w3.org/2000/svg" xmlns:xlink="http://www.w3.org/1999/xlink" x="0px" y="0px"
	 viewBox="-153 -46 652 652" style="enable-background:new -153 -46 652 652;" xml:space="preserve">
<style type="text/css">
	.st0{fill:#FF0000;}
</style>
<path id="XMLID_34_" class="st0" d="M21,336.4c0.2-0.1,0.1-0.4,0-0.5c-0.1,0-0.2,0-0.2,0C20.6,336,20.6,336.5,21,336.4 M20.3,333.9
	c0,0.2,0.2,0.5,0.4,0.4c0.2-0.1,0.2-0.5,0.1-0.7c-0.1-0.1-0.2-0.1-0.3-0.1C20.4,333.7,20.3,333.8,20.3,333.9 M-54.1,341.9
	C-54.1,342-54.1,342-54.1,341.9c-0.1,0-0.1,0-0.1,0C-54.2,341.9-54.2,341.9-54.1,341.9 M-51.1,334.1c-0.1,0.1-0.2,0.1-0.2,0.2
	c-0.1,0.2,0,1,0.4,0.9c0.4-0.1,0.3-0.8,0.1-1C-50.9,334.2-51,334.2-51.1,334.1 M12.2,325.7c-0.1,0.1-0.2,0.2-0.4,0.2
	c-0.1,0-0.1,0.2-0.2,0.2c0,0.1,0,0.1,0,0.1c0.1,0.2,0.7,0.1,1,0.1c0,0,0,0,0,0c0,0,0,0,0,0c0,0,0,0,0,0
	C12.7,325.9,12.6,325.7,12.2,325.7 M-51.7,330.9c0,0.1,0,0.4,0.2,0.3c0,0,0,0,0,0C-51.5,331-51.6,330.9-51.7,330.9 M-55.2,328.8
	c0,0.4,0,0.7,0.4,0.9c0.1,0,0.1,0.1,0.2,0.1C-54.5,329.3-54.7,328.8-55.2,328.8 M6.3,320.3c0,0.1-0.1,0.2-0.1,0.3c0.1,0,0.1,0,0.2,0
	C6.3,320.5,6.4,320.4,6.3,320.3 M2.6,319.5c0.1,0,0.2-0.1,0.3,0h0c0,0.1,0,0.2,0,0.2c0,0,0,0,0,0C2.7,319.6,2.7,319.6,2.6,319.5
	 M-56.1,326.2c0,0.1-0.1,0.2,0,0.2C-56,326.5-56,326.3-56.1,326.2 M6.9,317.1c-0.1,0.1-0.3,0.3-0.4,0.5c-0.1,0.5,0.4,1,0.9,0.8
	c0.3-0.1,0.2-0.4,0.1-0.7c0-0.2,0-0.4-0.2-0.5C7.3,317.1,7.1,317.1,6.9,317.1 M-57,321.8C-57,321.9-57,321.9-57,321.8
	c0,0.1-0.1,0.1,0,0.1c0,0,0.1,0.1,0.1,0.1c0,0,0,0,0,0c0,0,0,0,0,0c0,0,0,0,0-0.1C-56.9,321.9-56.9,321.9-57,321.8 M-53.8,320.3
	c-0.1,0.1-0.1,0.1-0.2,0.2c-0.1,0.2,0.1,0.8,0.2,1c0.1,0.1,0.1,0.2,0.2,0.3c0.7,0,0.3-0.6,0.1-0.8
	C-53.5,320.6-53.5,320.4-53.8,320.3 M-10.2,297.7c0.1,0,0.2,0.5,0.7,0.2c0.3-0.2,0.3-0.7,0-0.8c-0.1,0-0.2,0-0.3,0
	C-10,297.2-10.1,297.5-10.2,297.7 M23.7,286.7c0.1,0,0.2-0.1,0.2-0.2c0.4-0.5-0.1-0.9-0.6-0.8C23.1,286,23.1,286.9,23.7,286.7
	 M-52.5,294.3c-0.1,0,0-0.1,0-0.2C-52.4,294.2-52.3,294.3-52.5,294.3 M27.7,284.1c-0.2,0.1-0.4,0.2-0.5,0.5c-0.1,0.4,0.6,1.2,1,1
	c0.4-0.1,0.3-1.1,0-1.3C28,284.2,27.8,284.2,27.7,284.1 M-52.3,291.7c-0.1,0.1-0.4,0.5-0.1,0.6C-52.1,292.3-52.1,291.8-52.3,291.7
	 M-65,289.4c0.1,0.1,0.1,0.2,0.3,0.2c0.5,0.1,0.8-1,0.7-1.3c0-0.1-0.5-0.1-0.6-0.1C-65,288.5-65.3,288.9-65,289.4 M24.3,276.9
	c-0.1,0.2-0.2,0.4,0.1,0.5c0.1,0,0.2,0,0.3-0.1C24.7,276.9,24.6,276.8,24.3,276.9 M-71.3,288C-71.4,288-71.4,288-71.3,288
	C-71.4,288.1-71.4,288.1-71.3,288c0.1,0.2,0.2,0.3,0.3,0.4c0.2,0.2,0.1,0.5,0.4,0.6c0-0.1,0.2-0.2,0.2-0.3c0.1-0.2,0.4-1.1,0-1.3
	c-0.1-0.1-0.3,0-0.5,0C-71.1,287.6-71.3,287.8-71.3,288 M-73.3,287.8c-0.2,0.7,1.3,0.9,1.6,0.4c0.1-0.1,0-0.3,0-0.4
	c-0.2-0.4-0.6-0.5-1.2-0.5C-73,287.4-73.2,287.5-73.3,287.8 M-40.9,282.8c-0.1,0.2,0,0.3,0,0.5c0.1,0,0.1,0,0.2,0
	C-40.7,283.1-40.7,282.9-40.9,282.8 M-66.3,286.9c0.1,0,0.2,0.1,0.3,0.1c0.2,0,0.3-0.2,0.3-0.4c0.1-0.2,0.2-0.4,0.2-0.6
	c0.1-0.7-0.3-1.3-1-1.3C-67,285.1-67.1,286.5-66.3,286.9 M-34.6,280.6c-0.2,0.1-0.4,0.2-0.4,0.4c-0.2,0.6,0.7,0.9,1.1,0.8
	c0.1-0.1,0.2-0.2,0.2-0.3c0.1-0.4-0.1-0.8-0.5-0.9C-34.3,280.6-34.4,280.6-34.6,280.6 M-43.7,281.7c-0.1,0.1-0.2,0.2-0.2,0.3
	c-0.3,0.7,0.3,1.9,1.2,1.4c0.2-0.1,0.2-0.3,0.3-0.5c0.1-0.2,0.1-0.5,0-0.7C-42.6,281.9-43.3,281.7-43.7,281.7 M-35.8,279.7
	c0,0.1-0.1,0.2-0.1,0.3c-0.1,0.3,0.2,0.6,0.5,0.6C-35.1,280.2-35.2,279.7-35.8,279.7 M-20.6,277c-0.1,0.1-0.2,0.2-0.2,0.3
	c-0.1,0.3,0.3,0.5,0.5,0.4c0.3-0.1,0.2-0.5,0-0.7C-20.3,277-20.4,277-20.6,277 M-28.2,276.4c-0.3,0.2-0.6,0.6-0.2,0.9
	c0.1,0.1,0.2,0.1,0.4,0.1c0.5-0.1,0.6-0.7,0.2-1C-27.9,276.5-28.1,276.5-28.2,276.4 M-25.7,275.6c-0.1,0.1-0.5,0.2-0.5,0.4
	c0.2,0.1,0.4,0.2,0.7,0c0.1,0,0.1-0.1,0.2-0.1C-25.4,275.7-25.5,275.6-25.7,275.6 M-33.1,276.1c-0.1,0.3,0,0.8,0.1,1.1
	c0.1,0.1,0.1,0.2,0.2,0.3C-31.9,277.6-32.5,276.2-33.1,276.1 M-23.5,274.6c-0.1,0.1-0.3,0.2-0.3,0.3c-0.2,0.5,0.1,1.3,0.7,1.3
	c0.2-0.3,0.7-0.4,0.8-0.8c0-0.1,0-0.3,0-0.4C-22.5,274.6-23,274.6-23.5,274.6 M-46.1,276.2c-0.1,0.3-0.5,0.6-0.3,0.9
	c0,0,0.1,0.1,0.2,0.1C-46.1,276.9-45.7,276.5-46.1,276.2 M-17.8,271.2c-0.2,0.1-0.6,0.2-0.7,0.4c-0.1,0.2,0.1,0.5,0.1,0.7
	c0,0.2,0.1,0.3,0.1,0.5c0.1,0.3,0.4,0.7,0.7,0.8c0.2,0,0.3,0,0.5,0c0.1,0,0.3,0,0.4,0.1c0.2-0.5,0.2-1.4-0.1-1.9
	C-17,271.4-17.5,271.2-17.8,271.2 M-15.1,268.7C-15.1,268.7-15.1,268.7-15.1,268.7c-0.4,0.3,0.1,1,0.5,0.7
	C-14.2,269.1-14.9,268.7-15.1,268.7 M-45.8,271.6C-45.8,271.7-45.8,271.7-45.8,271.6c0,0.1-0.1,0.2-0.2,0.2c0.1,0.1,0.2,0.3,0.4,0.2
	C-45.4,271.9-45.6,271.7-45.8,271.6 M-15.4,266.2c-0.3,0.1-0.6,0.1-0.8,0.4c-0.3,0.5,0.2,0.9,0.5,1.3c0.1,0.2,0.2,0.3,0.4,0.3
	c0.4,0,0.8-0.9,0.8-1.3c0-0.3-0.2-0.6-0.5-0.7C-15,266.1-15.2,266.1-15.4,266.2 M-45.4,268.9C-45.4,268.9-45.4,268.9-45.4,268.9
	c-0.7,0.5-0.5,1.7,0.5,1.6c0.1-0.1,0.3-0.2,0.4-0.3c0.1-0.2,0.1-0.4,0-0.6C-44.7,269.1-44.9,268.9-45.4,268.9 M-46.5,263.9
	c-0.2,0.2-0.5,0.4-0.4,0.7c0,0.1,0.1,0.1,0.2,0.1c0.3,0,0.5-0.5,0.4-0.7C-46.3,264-46.4,264-46.5,263.9 M-49,257.2
	c0.2-0.1,0-0.5-0.2-0.6c-0.1-0.1-0.2,0-0.4,0C-49.7,256.9-49.5,257.5-49,257.2 M7.3,243.9C7.3,243.9,7.3,243.9,7.3,243.9
	c-0.2,0.2-0.1,0.4-0.1,0.6c0.5,0,0.4-0.2,0.4-0.6C7.5,243.9,7.4,243.9,7.3,243.9 M-42.8,248.7c-0.1,0.4-0.1,0.9-0.3,1.2
	c-0.2,0.2-0.6,0.2-0.9,0.3c-0.1,0-0.2,0.2-0.3,0.3c-0.2,0.2-0.2,0.4-0.2,0.7c0,0.7,0.3,0.7,0.9,1c0.1,0.1,0.3,0.2,0.4,0.2
	c0.2,0,0.4-0.1,0.6-0.2c0.8-0.4,0.5-1.2,0.4-1.9c0-0.2,0.1-0.4,0.2-0.6C-42,249.5-42.5,248.8-42.8,248.7 M-29.3,244.8
	c0,0.2,0.1,0.8,0.4,0.6c0.2-0.1,0.1-0.5-0.1-0.6C-29.1,244.8-29.2,244.8-29.3,244.8 M-42.8,245.5c-0.1,0.1-0.2,0.3-0.2,0.4
	c0,0.4,0.5,1.2,0.9,1c0.5-0.2,0.4-1,0-1.3C-42.3,245.5-42.6,245.5-42.8,245.5 M-35.9,241.1C-35.9,241.1-35.9,241.1-35.9,241.1
	c-0.2,0.2-0.1,0.5-0.2,0.8c-0.1,0.2-0.2,0.4-0.4,0.6c-0.2,0.2-0.3,0.5-0.3,0.7c-0.1,0.4-0.1,0.8-0.2,1.2c-0.1,0.4-0.4,0.7-0.6,1
	c-0.2,0.4-0.2,0.7-0.3,1.1c0,0.2-0.2,0.4-0.2,0.7c0,0.3,0.1,0.7,0.1,1.1c0,0.5-0.1,1-0.1,1.5c0,0.4,0.1,0.7,0,1.1
	c0,0.2-0.1,0.5-0.2,0.7c-0.1,0.2-0.3,0.3-0.3,0.5c-0.2,0.3-0.3,0.6-0.3,0.9c-0.1,0.8,0.1,1.6,0.2,2.4c0,0.3,0,0.5-0.1,0.7
	c0,0.2,0,0.4,0,0.7c0,0.3,0.1,0.5,0.1,0.8c0,0.8-0.3,1.5-0.5,2.2c0,0.2-0.1,0.5-0.1,0.7c-0.1,0.3-0.4,0.6-0.4,0.9
	c0,0.3,0.1,0.5,0.2,0.7c0.1,0.2,0.1,0.4,0.1,0.6c0,0.5,0,1-0.1,1.4c-0.1,0.4-0.2,0.8-0.2,1.3c0,0.1,0.1,0.3,0.1,0.4
	c0.1,0.3,0.2,0.6,0.1,0.9c0,0.1-0.1,0.2-0.2,0.4c-0.4,0.8-1-0.1-1.2,0.5c-0.2,0.5,0,1.1,0,1.7c0,0.3-0.1,0.6,0,1
	c0,0.4,0.1,0.8,0.1,1.2c0,0.3-0.1,0.5-0.2,0.8c-0.3,0.4-0.8,0.8-1,1.3c-0.1,0.4,0.1,0.9,0.1,1.3c0,0.2,0,0.4-0.1,0.6
	c0,0.3,0,0.6,0,0.9c0,0.2-0.1,0.5-0.2,0.7c0,0.3,0,0.6,0.1,0.8c0,0.5-0.4,0.9-0.5,1.4v0.1c0,0,0,0,0,0c0,0,0,0,0,0c0,0,0,0,0,0
	c0,0,0,0,0,0c0.3-0.1,0.5-0.3,0.8-0.2c0.2,0,0.4,0.1,0.6,0.2c0.1,0.1,0.2,0.2,0.4,0.2c0.2,0,0.4-0.1,0.6-0.2c0.2-0.1,1-0.6,1-0.8
	c0.1-0.2,0-0.5,0-0.7c0-0.3,0.1-0.6,0.3-0.8c0.1-0.1,0.2-0.2,0.4-0.2c0.4-0.1,1.2,0.2,1.4,0.5c0.1,0.1,0.3,0.6,0.3,0.8
	c0.1,0,0.1,0,0.2,0c0.2-0.5,0.5-0.3,0.9-0.6c0.2-0.2,0.4-0.4,0.6-0.7c0.3-0.3,0.3-0.6,0.8-0.7c0.2-0.1,0.4-0.2,0.6-0.3
	c0.2-0.1,0.3,0,0.5,0c0.1,0,0.9-0.4,0.9-0.5c0.2,0,0.4,0,0.5,0c0.1-0.1,0.3-0.2,0.5-0.2c0.8,0,0.4,1,0.7,1c0.4,0,0.4-0.7,0.7-0.8
	c0.2-0.1,0.6-0.1,0.8-0.1c0.5,0.1,1.3,0.5,1.1-0.5c0-0.2-0.2-0.3-0.2-0.5c0-0.1,0-0.2,0-0.3c0.2-0.1,0.4-0.1,0.6-0.1
	c0.2,0,0.3-0.1,0.5-0.2c0.3,0,0.6,0,0.9,0c0.3-0.2,1.2-0.1,1.6-0.1c0.4-0.2,0.8,0,1.2,0c0.3,0,0.5-0.1,0.8-0.1c0.1,0,0.2,0,0.2-0.1
	c0.1-0.1,0.4,0,0.5-0.1c0.7-0.5,0.8-1.5,0.4-2.2c-0.2-0.3-0.4-0.7-0.6-1c-0.1-0.2-0.1-0.4-0.2-0.6c-0.1-0.2-0.3-0.4-0.5-0.6
	c-0.2-0.2-0.3-0.4-0.5-0.6c-0.5-0.4-0.9,0.7-1.4,0.3c-0.3-0.3-0.3-0.8-0.4-1.3c-0.1-0.5-0.3-0.9-0.4-1.4c0-0.3,0.2-0.6,0-0.9
	c-0.2-0.4-0.8-0.7-1-1.1c-0.3-0.6,0-1.6-0.5-2c-0.5-0.6-1.6-0.6-1.9-1.2c-0.1-0.2-0.1-0.5,0-0.7c0-0.2,0-0.4,0-0.6
	c0-0.2,0.1-0.4,0.1-0.6c0-0.2-0.1-0.4-0.2-0.6c-0.1-0.2-0.4-0.4-0.6-0.6c-0.4-0.3-0.9-0.7-1.1-1.2c-0.1-0.3,0-0.5,0-0.7
	c0-0.3,0-0.6,0.1-0.9c0.4-0.7,1.8-1.5,1-2.5c-0.2-0.2-0.5-0.5-0.8-0.4c-0.1,0.1-0.3,0.2-0.4,0.3c-0.2,0.1-0.4,0.2-0.5,0.3
	c-0.2,0.2-0.3,0.7-0.7,0.8c-0.3,0-1.3-0.6-1.4-0.8c-0.2-0.3-0.2-0.6-0.3-0.9c-0.2-0.6-0.9-1.3-0.7-2c0.1-0.3,0.3-0.4,0.6-0.5
	c0.7-0.1,1.1,0.2,1.5,0.6c0.1,0.1,0.2,0.2,0.4,0.3c0.3,0.2,0.7,0.2,1.1,0.3c0.1,0,0.2,0.1,0.4,0.1c0.2-0.4-0.2-0.6-0.4-0.9
	c-0.2-0.4-0.2-1-0.6-1.4c-0.3-0.3-0.8-0.4-1.2-0.4c-0.2,0-0.4,0-0.5-0.1c-0.5-0.1-0.6-0.6-0.9-0.9c-0.3-0.3-0.7-0.4-0.9-0.7
	c-0.3-0.5-0.4-1-0.2-1.5c0.1-0.2,0.2-0.4,0.3-0.6c0-0.3-0.1-0.5-0.2-0.8c0-0.2,0.1-0.4,0-0.7c0-0.1-0.6-0.7-0.7-0.8
	C-35.7,241.1-35.8,241.1-35.9,241.1 M-26.7,239.5C-26.7,239.6-26.7,239.6-26.7,239.5c-0.3,0.2-0.4,0.8,0,0.7
	C-26.3,240.2-26.1,239.6-26.7,239.5 M-35.5,235.8C-35.5,235.8-35.5,235.8-35.5,235.8c-0.3,0.2-0.4,0.6-0.4,0.8
	c0,0.4,0.2,1.3,0.7,1.2c0.6-0.1,1.1-1.8,0.3-2.1C-35.1,235.8-35.3,235.8-35.5,235.8 M-35.4,233.1c-0.2,0.2-0.4,0.3-0.5,0.6
	c-0.2,0.4,0.1,1.2,0.6,1.2C-34.3,234.7-34.5,233.2-35.4,233.1 M-34.1,227.4c0,0.3,0.3,0.9,0.7,0.6c0.1-0.1,0.1-0.2,0.1-0.3
	C-33.4,227.3-33.8,227.3-34.1,227.4 M-35.1,222.9c-0.2,0.1-0.4,0.2-0.5,0.4c-0.2,0.3,0.1,0.8,0.4,0.8C-34.7,224-34.5,223-35.1,222.9
	 M11.4,209.8c-0.1,0.4-0.4,0.5-0.4,0.9c0,0.3,0.1,0.7-0.1,1c-0.3,0.5-0.8,0.5-1.2,0.9c-0.3,0.3-0.4,0.6-0.5,1c0,0.3,0,0.5-0.1,0.8
	c-0.1,0.3-0.5,0.5-0.5,0.9c-0.1,0.9,1.3,0.9,1.3,2c0,0.6-0.6,0.8-0.8,1.2c-0.1,0.2-0.1,0.6-0.1,0.8c0,0.3-0.2,0.6-0.2,0.9
	c0,0.7,1,0.7,1,1.3c0,0.4-0.4,0.5-0.6,0.7c-0.1,0.1-0.1,0.3-0.1,0.4c0,0.2,0,0.3,0,0.5c0.1,0.2,0.2,0.3,0.4,0.5
	c0.3,0.2,0.5,0.6,0.5,0.9c0,0.6-0.7,1.4-0.5,1.9c0.2,0.4,0.5,0.2,0.9,0.2c0.2,0,0.5,0.1,0.6,0.3c0.1,0.1,0.2,0.2,0.2,0.4
	c0.1,0.7-0.8,1.5-0.8,2.3c0,0.3,0.2,0.5,0.3,0.8c0.1,0.3,0.2,0.6,0.3,0.9c0.1,0.1,0.2,0.3,0.3,0.4c0.1,0.2,0.1,0.4,0.2,0.5
	c0.2,0.4,0.4,0.9,0.6,1.4c0.1,0.4-0.1,0.7,0,1.1c0.1,0.4,0.4,0.7,0.4,1.1c0,0.3-0.2,0.5-0.2,0.8c0,0.2,0,0.5,0,0.8
	c0,0.4,0.1,0.8,0.2,1.1c0.1,0.4,0.8,0.7,0.5,1.1c-0.2,0.4-0.8,0.4-1.1,0.6c-0.4,0.3-0.8,0.5-1.2,0.7c-0.5,0.1-0.6,0.4-1,0.5
	c-0.2,0.1-0.4,0.1-0.5,0.2c-0.3,0.2-0.7,0.7-1,0.7c-0.6,0.1-0.5-1-1.2-0.9c-0.3,0-0.4,0.3-0.7,0.4c-0.3,0.1-0.6-0.1-0.9,0.1
	c-0.3,0.2-0.4,0.5-0.6,0.8c-0.1,0.2-0.3,0.3-0.4,0.4c-0.4,0.4-0.7,0.8-1.2,1.1c0-0.1-0.2-0.1-0.2-0.2c0-0.1-0.1-0.2-0.1-0.3
	c-0.1-0.5-0.3-1.2-1-1c-0.1,0.1-0.2,0.2-0.4,0.2c-0.1,0.1-0.3,0.1-0.4,0.2c-0.4,0.1-0.8-0.1-1.2,0c-0.3,0.1-0.3,0.6-0.8,0.5
	c-0.6-0.1-0.7-1.1-1.5-0.8c-0.3,0.1-0.4,0.4-0.5,0.6c-0.3,0.3-0.5,0.5-0.8,0.8c-0.2,0.2-0.3,0.4-0.6,0.5c0,0,0,0,0,0
	c-0.2,0-0.4-0.2-0.5-0.3c-0.3-0.3-0.9-0.7-1.3-0.4c-0.5,0.1-0.9,0-1.3,0.2c-0.1,0-0.2,0.1-0.3,0.2c-0.1,0.2-0.2,0.4-0.4,0.6
	c-0.1,0.2-0.4,0.4-0.5,0.7c-0.1,0.3,0,0.6,0.1,0.8c0.1,0.4,0.7,0.5,0.5,1c-0.2,0.3-0.6,0.6-1,0.6c-0.2,0-0.5-0.1-0.7-0.1
	c-0.2,0-0.3,0.2-0.4,0.3c-0.1,0.1-0.2,0.2-0.2,0.3c-0.1,0.6,0.7,0.4,1,0.5c0.4,0.2,0.5,0.7,0.7,1.1c0.1,0.1,0.2,0.2,0.4,0.3
	c0,0,0,0,0,0c0.4,0.2,1.5,0.2,2,0.1c0.2,0,0.3,0,0.5,0c0.3,0.1,0.3,0.5,0.6,0.6c0.2,0,0.4,0,0.6,0c0.2,0.1,0.3,0.1,0.5,0.2
	c0.3,0.1,0.7,0.1,1,0.1c0.2,0,0.4-0.1,0.6-0.1c0.2,0,0.5,0,0.7-0.1c0.4-0.1,0.8-0.2,1.1-0.3c0.3-0.1,0.5,0,0.8-0.1
	c0.3-0.1,0.6-0.3,0.9-0.4c0.1-0.1,0.2-0.1,0.4-0.2c0.2-0.1,0.5,0,0.7,0.1c0.3,0,0.6-0.1,0.8-0.1c0.2-0.1,0.4-0.2,0.6-0.3
	c0.5-0.2,1-0.4,1.6-0.6c0.7-0.2,1.2,0.2,1.9,0.2c0.3,0,0.6-0.2,0.9-0.2c0.4-0.1,0.7,0,1,0c0.4-0.1,0.6-0.3,1-0.4
	c0.3-0.1,0.6-0.1,0.9-0.2c0.2-0.1,0.4-0.2,0.7-0.3c0.4-0.1,0.8-0.1,1.2,0c0.3,0,0.5,0.1,0.8,0.1c0.4-0.1,1-0.5,1.4-0.2
	c0.1,0.1,0.1,0.2,0.1,0.4c0,0.3-0.3,0.6-0.6,0.7c-0.2,0-0.4,0.1-0.5,0.2c-0.1,0.1-0.2,0.2-0.2,0.4c0,0.3,0.2,0.6,0.1,0.9
	c0,0.6-0.7,0.9-0.4,1.6c0.3,0.6,1,0.5,1.1,1.2c0.1,0.5-0.6,1-0.4,1.4c0.3,0.7,1.2,0.3,1.6,0.8c0.3,0.4-0.7,1.2,0.1,1.5
	c0.1,0,0.3,0,0.4,0c0.4-0.2,0.6-0.9,1.1-0.7c0.1,0,0.2,0.1,0.3,0.2c0.2,0.4-0.3,0.7-0.4,1.1c-0.1,0.2,0,0.4-0.1,0.6
	c0,0.1-0.1,0.2-0.1,0.4c0,0.3,0,0.6,0.1,0.9c0,0.1,0.1,0.3,0.2,0.5c0,0.4-0.2,1.1-0.1,1.5c0,0,0,0.1,0.1,0.1
	c0.4,0.4,0.9-0.4,1.2-0.5c0,0,0,0,0,0c0.3-0.1,0.5,0.1,0.7,0.1c0.2,0,0.4-0.1,0.6-0.1c0.1,0,0.2,0.1,0.2,0.1c0,0,0,0.1,0.1,0.1
	c0.2,0.7-0.6,1.1-0.7,1.7c-0.1,0.3,0.2,0.5,0.3,0.8c0.2,0.6,0,1.6-0.6,1.8c0-0.3-0.6-0.9-0.9-0.8c-0.7,0.1-0.8,0.8-0.7,1.3
	c0,0.3,0,0.5,0.2,0.7c0.1,0.3,0.5,0.5,0.8,0.5c0.2,0,0.4,0,0.6,0.2c0.4,0.3,0.6,0.9,0.8,1.3c0.2,0.2,0.3,0.4,0.5,0.6
	c0.1,0.2,0.2,0.3,0.2,0.5c0.2,0.2,0.4,0.3,0.4,0.6c0,1.2-2,0.3-2.1,1c-0.1,0.5,1.1,1.1,1.5,1.3c0,0.3-0.7,0.7-0.8,1.1
	c-0.2,0.4,0,1,0.2,1.4c0.2,0.5,0.8,0.6,1.3,0.8c0.3,0.1,0.5,0.3,0.8,0.3c0.2,0,0.4,0,0.6,0c0.2,0,0.6,0.2,0.7,0.4
	c0.3,0.4,0.4,1.3,0.3,1.8c-0.1,0.3-0.2,0.6-0.2,0.9c0,0,0,0,0,0c0,0,0,0,0,0c-0.2,0-0.4-0.2-0.6-0.3c-0.3-0.1-0.6-0.3-0.9-0.4
	c-0.3-0.2-0.5-0.6-1-0.5c-0.2,0-0.3,0.1-0.4,0.3c-0.3,0.6,0.3,1.1,0.6,1.4c0.1,0.2,0.3,0.4,0.4,0.6c0.2,0.2,0.5,0.4,0.6,0.6
	c0,0.1,0,0.3,0,0.4c0,0.2,0.1,0.4,0.3,0.4c0.1,0,0.1-0.1,0.2-0.1c0.2-0.2-0.2-0.4-0.2-0.7c0-0.3,0.6-0.7,0.9-0.7
	c0,0.3,0,0.5,0.1,0.8c0.2,0.6,0.8,0.8,1.4,0.6c0.3-0.1,0.4-0.2,0.7-0.2c0.3,0,0.5,0.6,0.3,0.9c-0.1,0.2-0.2,0.2-0.3,0.3
	c-0.4,0-0.7,0.4-0.7,0.7c0,0.4,0.2,0.6,0.4,0.8c0.2,0.3,0.4,0.8,0.5,1.1c0.1,0.4-0.2,0.8-0.2,1.1c0,0.4,0.3,0.6,0.4,0.9
	c0.1,0.3-0.1,0.4-0.2,0.7c-0.2,0.4,0,0.8,0.3,1c0.1,0.1,0.3,0.2,0.4,0.2c0.3-0.1,0.6-0.3,0.7-0.6c0.1-0.1,0.1-0.3,0.2-0.4
	c0.2-0.2,0.5-0.2,0.8-0.2c0.2,0,0.4-0.1,0.5,0c0.4,0.2,0.4,0.7,0.6,1c0.2,0.3,0.5,0.5,0.6,0.9c0,0.4-0.3,0.7-0.3,1.1
	c-0.1,0.5,0.3,0.9,0.8,0.9c0.1-0.1,0.3-0.1,0.4-0.2c0.3-0.1,0.5-0.4,0.9-0.5c0.3-0.1,0.5,0,0.8-0.1c0.2-0.1,0.3-0.3,0.3-0.5
	c0-0.5-0.4-1.1-0.9-1.3c-0.2-0.1-0.5,0-0.7-0.2c0-0.1-0.1-0.1-0.1-0.2c0,0,0-0.1-0.1-0.1c0,0,0-0.1,0-0.1c0-0.2,0-0.4,0.1-0.6
	c0-0.4-0.2-0.9-0.1-1.3c0-0.2,0.1-0.3,0.1-0.5c0-0.4,0-0.8-0.1-1.3c-0.1-0.6-0.7-0.4-0.7-0.9c0-0.5,0.7-0.6,0.7-1.1V284
	c0-0.5-0.7-0.6-0.8-1.1c-0.1-0.2,0.2-0.5,0.3-0.7c0.1-0.2,0.2-0.4,0.2-0.6c0-0.4-0.4-0.7-0.5-1c-0.1-0.1-0.1-0.3-0.2-0.4
	c0-0.1-0.2,0-0.2,0.1c-0.2,0.2-0.2,0.6-0.3,0.8c-0.1,0.2-0.1,0.4-0.2,0.7c-0.1,0.1-0.1,0.2-0.2,0.3c-0.1,0.2-0.1,0.4-0.3,0.6
	c-0.9,0.1-0.9-1.6-1.1-2.2c-0.1-0.3-0.7-0.7-0.5-1c0.1-0.2,0.5-0.3,0.7-0.3c0.3-0.2,0.7-0.4,1.1-0.4c0.4,0,0.7,0.4,0.8,0.7
	c0.1,0.1,0.1,0.2,0.2,0.3c0.2,0.1,0.4-0.1,0.5-0.2c0.3-0.3,0.3-1,0.4-1.4c0-0.1,0.1-0.3,0.1-0.4c0.1-0.2,0.1-0.5,0-0.7
	c-0.1-0.6-0.7-0.4-1-0.1c-0.2,0-0.4,0-0.5,0.1c-0.4,0-0.5-0.4-0.4-0.7c0-0.1,0.1-0.2,0.1-0.3c0-0.1,0-0.2,0-0.3
	c-0.1-0.3-0.4-0.6-0.3-1c0.1-0.5,0.9-0.2,1-0.7c0.1-0.4-0.9-1-1-1.6c-0.1-0.4,0.2-0.7,0.2-1c0-0.5,0.1-0.9,0-1.4
	c0-0.2-0.1-0.4-0.1-0.6c0-0.2,0.2-0.4,0.2-0.6c-0.1-0.3-0.4-0.4-0.6-0.6c-0.2-0.2-0.3-0.4-0.3-0.7c-0.1-0.4-0.2-0.9,0-1.2
	c0.2-0.4,0.5-0.2,0.4-0.9c-0.1-0.5-0.2-0.9-0.5-1.2c-0.2-0.2-0.4-0.3-0.5-0.5c-0.1-0.2-0.3-0.8-0.3-1c-0.1-0.6,0.6-0.9,0.5-1.5
	c-0.1-0.5-0.4-0.8-0.7-1.2c-0.1-0.2-0.1-0.5-0.2-0.8c-0.1-0.4-0.4-0.7-0.5-1.1c-0.1-0.3,0-0.7,0.1-1c0-0.3,0-0.7-0.1-0.9
	c-0.1-0.4-0.3-0.6-0.4-0.9c-0.1-0.3,0-0.6-0.1-1c-0.1-0.3-0.2-0.7-0.2-1c0-0.5,0.3-0.8,0.2-1.3c-0.1-0.3-0.2-0.5-0.3-0.8
	c-0.1-0.3-0.1-0.6-0.3-0.8c-0.1-0.1-0.2-0.2-0.4-0.2c-0.3-0.2-0.6-0.4-0.8-0.8c-0.2-0.4-0.1-0.7,0-1.1c0-0.2,0-0.4,0-0.6
	c0-0.4-0.1-0.8,0-1.2c0.1-0.4,0.2-0.9,0.4-1.3c0,0,0,0,0-0.1c0,0,0,0,0,0c0,0,0,0,0.1-0.1c0,0,0,0,0.1-0.1c0,0,0,0,0.1-0.1
	c0,0,0,0,0,0c0.1-0.1,0.1-0.1,0.2-0.2c0.1-0.1,0.3-0.2,0.5-0.2c0.4-0.1,0.7,0.1,1.1,0.2c0.3,0.1,1.1-0.1,1.4-0.2
	c0.7-0.2,0.9-1.1,1.7-1.1c0,0,0,0,0.1,0c0.3,0,0.4,0.2,0.7,0.4c0.1,0.1,0.2,0.1,0.4,0.2c0.4,0.2,0.8,0.5,1.3,0.4
	c0.7-0.1,0.8-1.1,1.4-1.2c0.4-0.1,0.8,0.2,1.3,0.2c0.4,0,0.6-0.3,0.9-0.4c0.6-0.2,1.2-0.4,1.8-0.5c0.4-0.1,0.8,0.1,1.3,0
	c0.4-0.1,0.7-0.3,1-0.3c0.6-0.1,1.1-0.1,1.6-0.2c0.3-0.1,0.6-0.3,0.9-0.4c0.2-0.1,0.4,0,0.6-0.1c0.4-0.1,0.8-0.4,1.2-0.6
	c0.2-0.1,0.3-0.1,0.5-0.2c0.6-0.3,0.8-1.2,1.1-1.7c0.1-0.2,0.3-0.4,0.4-0.6c0.1-0.3,0-0.7,0.2-1c0.2-0.4,0.7-0.5,0.6-1
	c-0.2-0.8-0.8-0.6-1.2-1c-0.1-0.1-0.2-0.3-0.2-0.4c-0.1-0.2-0.3-0.3-0.5-0.4c-0.1,0-0.3-0.1-0.4-0.1c-0.6,0-0.7,0.5-1.1,0.5
	c-0.7-0.1-1.1-0.7-1.9-0.4c-0.1,0-0.2,0.1-0.3,0.1c-0.4,0-0.8,0.1-1.1,0c-0.2-0.1-0.3-0.2-0.5-0.2c-0.2-0.2-0.5-0.6-0.8-0.5
	c-0.3,0.1-0.4,0.4-0.5,0.5c-0.2,0.2-0.4,0.4-0.6,0.7c-0.1,0.1-0.3,0.2-0.4,0.3c-0.2,0-0.5,0-0.7,0.1c-0.3,0.1-0.4,0.4-0.6,0.6
	c-0.1,0.1-0.2,0.2-0.3,0.3c-0.5,0.1-0.9-0.3-1.4-0.1c-0.4,0.1-0.4,0.6-0.8,0.7c0,0-0.1,0-0.1,0c0,0,0,0,0,0
	c-0.6-0.1-1.5-1.4-2.2-0.9c-0.2,0.2-0.3,0.5-0.4,0.7c-0.1,0.1-0.2,0.2-0.3,0.3c-0.2,0-0.4,0-0.6,0c-0.3,0-0.5-0.2-0.7-0.2
	c-0.3,0-1.1,0.1-1.3,0.2c-0.3,0.2-0.5,0.5-0.7,0.7c-0.2,0.2-0.4,0.3-0.6,0.4c-0.2,0.2-0.1,0.4-0.2,0.6c-0.1,0.2-0.2,0.3-0.3,0.5
	c-0.1,0-0.3,0-0.4-0.1c-0.5-0.2,0.1-0.9-0.1-1.3c-0.1-0.5-0.9-0.9-1.3-1c-0.4-0.1-0.9,0.3-0.9,0.7c0,0.2,0.1,0.4,0.1,0.6
	c0,0.2-0.1,0.7-0.4,0.6c-0.3-0.1-0.3-0.5-0.4-0.8c-0.2-0.2-0.4-0.3-0.6-0.5c-0.2-0.2-0.4-0.6-0.5-0.9c-0.1-0.3-0.1-0.7-0.1-1
	c0-0.1,0-0.3,0-0.4c-0.1-0.3-0.5-0.4-0.5-0.8c0-0.3,0.2-0.6,0.3-0.9c0.1-0.4,0.1-0.8,0-1.3c-0.1-0.3-0.1-0.7-0.2-1
	c-0.1-0.4,0-0.8-0.1-1.2c-0.2-0.4-0.5-0.7-0.6-1.1c-0.1-0.6,0-1.2-0.2-1.8c-0.1-0.3-0.3-0.4-0.4-0.6c-0.3-0.4-0.5-0.9-0.7-1.4
	c-0.1-0.3,0-0.5,0-0.8c0-0.4-0.1-0.9-0.3-1.2c-0.2-0.5-0.9-0.7-1-1.2c-0.1-0.4,0-0.8,0.1-1.2c0-0.3-0.1-0.6-0.1-0.8
	c0-0.4,0.1-0.8,0-1.2c-0.1-0.8-0.5-1.4-0.6-2.2c0-0.3,0-0.5,0-0.8c0-0.6,0-1.3-0.2-1.9c-0.2-0.5-0.7-0.8-0.7-1.4
	c0-0.4,0.2-0.9,0.3-1.4c0.1-0.4-0.1-0.7-0.2-1.1c-0.2-0.5-0.3-1-0.8-1.2c-0.5-0.2-0.7,0.3-1,0.5c-0.1,0.1-0.3,0.1-0.5,0.2
	c-0.1,0-0.2,0.1-0.3,0.1c-0.4,0-0.6,0.4-0.9,0.3c-0.6-0.2,0-0.9-0.6-0.9C11.4,209.4,11.4,209.6,11.4,209.8 M-42.5,215
	c0.4,0,0.6,0.2,0.9,0.4c0.2,0.2,0.4,0.3,0.7,0.4c0.3,0.2,0.4,0.4,0.9,0.4c0.5,0,0.6-1.1,1.1-1.3c1.1-0.4,0.8,1,1.4,1.1
	c0.4,0.1,0.5-0.7,1.1-0.7c0.1,0,0.2,0.1,0.3,0.1c0.2,0.1,0.3,0.1,0.5,0.2c0.2,0.2,0.2,0.5,0.3,0.7c0.3,0.5,1,1,1.1,1.6
	c0,0.2,0,0.3,0,0.4c-0.1,0.3-0.2,0.5-0.1,0.9c0.2,0.4,0.6,0.7,0.9,1c0.1,0.2,0.2,0.4,0.4,0.6c0.1,0.1,0.3,0.3,0.4,0.5
	c0.1,0.2,0.1,0.5,0.2,0.7c0.1,0.4,0.3,0.7,0.3,1.2c0,0.2-0.1,0.3-0.1,0.5c0,0.2,0,0.4,0,0.6c0,0.3,0.2,0.4,0.3,0.6
	c0.1,0.2,0.1,0.5,0.2,0.7c0.1,0.3,0.5,0.5,0.7,0.8c0.2,0.3,0.3,0.6,0.5,0.8c0.3,0.4,0.6,0.8,0.8,1.2c0.1,0.2,0.1,0.4,0.1,0.6
	c0,0.2,0,0.5,0.1,0.7c0.1,0.3,0.3,0.8,0.5,1.1c0.2,0.2,0.4,0.4,0.5,0.7c0.1,0.3,0,0.8,0.2,1.1c0.2,0.4,0.6,0.6,0.7,1
	c0,0.1,0.1,0.3,0.1,0.4c0.1,0.3,0.3,0.5,0.4,0.8c0.1,0.2,0.1,0.5,0.2,0.8c0.2,0.4,0.5,0.6,0.7,1c0.1,0.3,0,0.6,0.2,0.9
	c0.1,0.2,0.3,0.2,0.5,0.3c0.3,0.1,0.5,0.4,0.6,0.6c0.2,0.5,0.5,1,0.4,1.5c0,0.4-0.3,0.7-0.2,1.1c0,0.4,0.6,0.5,0.7,0.8
	c0,0.2,0,0.4,0,0.5c0,0.2,0,0.6,0,0.9c0.2,0.5,1,0.3,1.1,0.9c0.1,0.8-0.8,0.4-1.2,0.6c-0.2,0.1-0.3,0.2-0.3,0.4c0,0.2-0.1,0.3,0,0.5
	c0.4,1,1.8,0.1,2.2,1c0.1,0.2,0.1,0.5,0,0.7c0,0.6-0.1,1.3,0.2,1.8c0.2,0.3,0.5,0.5,0.8,0.7c0.2,0.2,0.4,0.4,0.6,0.6
	c0.4,0.3,0.8,0.6,1,1c0.1,0.2,0.1,0.6,0.1,0.8c0,0.2-0.1,0.3-0.1,0.5c0,0.4,0.1,0.9,0.1,1.3c0,0.2,0,0.5,0.1,0.7
	c0.2,0.3,0.9,0.2,1.2,0.4c0.2,0.2,0.3,0.5,0.4,0.8c0.1,0.3,0.3,0.5,0.4,0.8c0.3,0.3,0.6,0.6,0.9,0.9c0.2,0.3,0.2,0.8,0.4,1.2
	c0.1,0.2,0.2,0.3,0.4,0.4c0.2,0.2,0.5,0.5,0.6,0.9c0.1,0.3,0,0.9,0,1.3c0,0.5,0.3,0.9,0.4,1.4c0.1,0.2,0,0.5,0.1,0.7
	c0.2,0.4,0.6,0.3,1,0.4c0.3,0.1,0.7,0.4,0.8,0.7c0.1,0.3,0.2,0.6,0.1,0.9c-0.1,0.2-0.2,0.4-0.1,0.7c0.1,0.4,0.4,0.7,0.5,1
	c0.1,0.2,0.2,0.5,0.3,0.8c0.1,0.2,0.3,0.3,0.4,0.5c0.2,0.3,0.3,0.5,0.5,0.8c0.2,0.2,0.3,0.3,0.5,0.5c0.2,0.2,0.4,0.5,0.6,0.7
	c0.2,0.2,0.4,0.4,0.6,0.5c0.1,0.2,0.2,0.4,0.3,0.6c0.3,0.3,0.8,0.7,1.2,0.7c0.3,0,0.7,0,1-0.1c0.5-0.3,0.9,0.1,1.3,0.2
	c0.7,0.3,1.4-0.1,1.6,1c0,0.3,0.1,0.6,0.1,0.9c0,0.2-0.2,0.4-0.4,0.6c-0.1,0.2-0.2,0.3-0.2,0.5c-0.1,0.1-0.2,0.2-0.4,0.3
	c-0.3,0.1-0.6,0-0.9,0.1c-0.3,0.1-0.6,0.4-0.8,0.6c-0.4,0.3-0.9,0.4-1.1,0.8c-0.3,0.4,0.1,1.3,0.1,1.9c0,0.3,0,0.6,0,0.9
	c0,0.2,0.1,0.3,0.2,0.5c0.3,0.3,0.7,0.2,1,0.5c0.1,0.1,0,0.2,0.1,0.3c0,0.3,0,0.7,0.1,1c0.2,0.4,0.5,0.7,0.7,1.1
	c0.3,0.6-0.2,1.2,0,1.8c0.4,0.9,1.2-0.6,1.7,0.2c0.3,0.5-0.1,0.8,0,1.2c0,0.3,0.2,0.5,0.3,0.7c0.1,0.2,0.2,0.5,0.3,0.7
	c0,0.3,0,0.6,0,0.9c0,0.2-0.2,0.4-0.1,0.6c0.1,0.4,0.6,0.4,1,0.5c0.1,0.1,0.3,0.2,0.3,0.3c0,0,0,0.1,0.1,0.1c0.2,0.4-0.1,0.7,0,1.1
	c0.1,0.3,0.5,0.4,0.6,0.8c0.1,0.2,0.1,0.5,0,0.7c-0.1,0.4-0.5,0.8-0.3,1.4c0.2,0.5,0.9,0.5,1.3,0.6c0.2,0.1,0.3,0.2,0.4,0.3
	c0.4,0.3,0.4,0.8,0.7,1.2c0.2,0.2,0.5,0.3,0.6,0.5c0.2,0.3,0.1,0.7,0.3,1c0.2,0.3,0.7,0.3,0.9,0.6c0.2,0.3,0,0.9,0.1,1.3
	c0.1,0.2,0.1,0.4,0.2,0.6c0.2,0.3,0.5,0.5,0.5,0.9c0,0.5-0.3,1-0.1,1.5c0.2,0.6,1-0.1,1.3,0.6c0.1,0.2,0.1,0.4,0.2,0.5
	c0.1,0.2,0.2,0.3,0.3,0.5c0.2,0.4,0.4,0.9,0.5,1.3c0.1,0.4,0,0.9,0.2,1.2c0.2,0.3,0.5,0.3,0.7,0.4c0.3,0.1,0.5,0.5,0.6,0.7
	c0.2,0.6-0.4,0.8-0.3,1.2c0.1,0.2,0.3,0.3,0.4,0.5c0.1,0.2,0.2,0.4,0.3,0.6c0.1,0.4,0.1,0.8,0.4,1.1c0.3,0.3,1.1,0.2,1.3,0.6
	c0.2,0.4-0.3,0.7-0.4,0.9c-0.1,0.2-0.2,0.4-0.2,0.5c0,0.1-0.1,0.3,0,0.4c0.2,0.4,0.8,0.2,1.1,0.5c0,0.1,0.1,0.1,0.1,0.2
	c0.1,0.5,0,0.9,0.1,1.3c0.2,0.4,0.7,0.2,0.7,0.7c0,0,0,0,0,0c0,0.1,0,0.3-0.1,0.4c-0.3,0.3-0.6-0.1-0.9-0.1c-0.2,0-0.3,0.1-0.4,0.2
	c-0.1,0.1-0.2,0.3-0.2,0.5c0,0.1,0.1,0.2,0.2,0.3c0.3-0.1,0.7-0.3,0.9-0.1c0.1,0.2,0.2,0.3,0.3,0.5c0.1,0.1,0.2,0.3,0.4,0.3
	c0.5,0.2,0.4-0.6,0.5-0.8c0.2-0.4,0.5-0.6,0.9-0.4c0,0,0,0,0,0c0,0,0,0,0,0c0.1,0.1,0.2,0.2,0.2,0.3c0.1,0.2,0.2,0.3,0.2,0.6
	c0,0.3,0,0.6,0.1,0.9c0.1,0.4,0.6,0.8,0.6,1.3c0,0.2-0.2,0.3-0.3,0.5c-0.3,0.4-0.5,0.8-0.4,1.3c0,0.2,0.1,0.5,0.3,0.6
	c0.9,0.8,1.2-0.8,1.4-1.3c0-0.1,0.3-0.5,0.4-0.3c0.2,0.3-0.1,0.6,0,0.9c0.1,0.4,0.4,0.7,0.5,1c0.1,0.3-0.1,0.5,0,0.7
	c0.1,0.4,0.2,0.6,0.3,1c0,0.2,0.1,0.4,0.1,0.6c0.1,0.3,0.5,0.5,0.5,0.9c0.1,0.4-0.5,0.6-0.4,1c0,0.4,0.5,0.5,0.6,1
	c0,0.4-0.7,0.5-0.6,1c0,0.1,0.1,0.1,0.2,0.1c0.1,0,0.3,0,0.4-0.1c0.3,0,0.8,0.2,1,0.5c0.3,0.5-0.3,0.8-0.2,1.2c0,0,0,0.1,0,0.1
	c0.1,0.3,0.6,0.3,0.8,0.6c0.2,0.3,0.1,0.7,0.1,1.1c0,0.3,0.2,0.4,0.3,0.6c0,0,0,0.1,0.1,0.1c0,0,0,0,0,0c0.1,0.2,0.2,0.4,0.2,0.6
	c0,0.3-0.1,0.6,0,0.9c0.1,0.3,0.4,0.5,0.6,0.7c0.2,0.2,0.3,0.5,0.3,0.7c0.2,0.4,0.4,0.8,0.1,1.2c-0.1,0.1-0.1,0.2-0.2,0.2
	c-0.2,0.1-0.4,0-0.5-0.2c-0.2-0.3-0.5-0.6-0.7-0.8c-0.1-0.2-0.2-0.5-0.4-0.7c-0.2-0.3-0.5-0.2-0.8-0.4c-0.3-0.2-0.4-0.5-0.6-0.7
	c-0.4-0.4-1-0.6-0.9-1.3c0-0.2,0.6-1.8,0-1.7c-0.1,0-0.4,0.3-0.4,0.5c0,0.2-0.1,0.3-0.1,0.5c-0.2,0.5-0.6,1.4-1.3,1.2
	c-0.2-0.1-0.4-0.2-0.5-0.3c-0.6-0.8,1-0.9,0.9-1.5c-0.1-0.5-1.2-0.6-1.3-1.1c0-0.1,0-0.2,0-0.3c0.1-0.1,0.2-0.2,0.3-0.3
	c0.4-0.5-0.4-0.4-0.5-0.8c0-0.2,0-0.5,0.1-0.7c0.1-0.2,0.3-0.4,0.3-0.6c0-0.1,0.1-0.4,0-0.4c0,0,0,0,0,0c-0.4,0.2-0.5,0.6-0.8,0.9
	c-0.1,0.1-0.2,0.1-0.3,0.2c-0.2,0.2-0.4,0.4-0.7,0.5c-0.3,0.1-0.6,0.2-0.9,0.2c-0.3,0.1-0.5,0.2-0.8,0.1c-0.2-0.1-0.4-0.4-0.4-0.7
	c-0.3-1,1.4-1,1.4-1.6c-0.1-0.1-0.3-0.2-0.4-0.2c-0.2,0-0.4,0.1-0.5,0.1c-0.2,0.1-0.5-0.1-0.7-0.2c-0.4-0.3-0.2-1.3-0.4-1.8
	c-0.2-0.5-0.6-0.9-1-1.3c-0.1-0.2-0.2-0.3-0.3-0.5c-0.3-0.3-0.6-0.5-0.7-1c-0.1-0.3,0-0.6,0.2-0.7c0.2-0.1,0.8-0.1,0.6-0.5
	c-0.1-0.1-0.2-0.1-0.3-0.2c-0.1-0.1-0.3-0.1-0.4-0.1c-0.3,0-0.6,0.1-0.8,0c-0.3-0.1-0.3-0.4-0.5-0.6c-0.2-0.2-0.5-0.3-0.7-0.5
	c-0.2-0.2-0.3-0.4-0.4-0.7c-0.1-0.5,0-1.5-0.4-1.9c-0.1-0.1-0.3-0.2-0.4-0.3c-0.4-0.1-1.1,0.1-1.3-0.3c-0.3-0.5,0-1-0.2-1.5
	c-0.1-0.2-0.4-0.5-0.6-0.6c-0.1-0.1-0.3-0.1-0.4-0.2c-0.4-0.4-0.6-0.8-0.8-1.4c-0.2-0.5,0.4-1,0.1-1.5c-0.2-0.3-0.5-0.4-0.8-0.6
	c-0.4-0.2-0.9-0.4-1.2-0.7c-0.1-0.1-0.1-0.3-0.2-0.4c-0.1-0.1-0.1-0.2-0.2-0.3c-0.1-0.2-0.2-0.5-0.1-0.7c0-0.3,0.3-0.4,0.1-0.8
	c-0.2-0.3-0.6-0.5-0.8-0.7c-0.2-0.3-0.2-0.7-0.4-0.9c-0.1-0.2-0.3-0.3-0.4-0.5c-0.4-0.3-0.8-0.5-1-1c-0.2-0.3,0-0.7-0.2-1
	c-0.1-0.3-0.5-0.3-0.6-0.6c0,0,0,0,0-0.1c-0.1-0.3,0.2-0.5,0.1-0.9c-0.1-0.3-0.4-0.3-0.6-0.5c-0.2-0.2-0.2-0.4-0.3-0.6
	c-0.2-0.3-0.6-0.5-0.7-0.9c-0.1-0.2-0.1-0.5,0-0.7c0-0.2,0.1-0.3,0.1-0.4c0-0.4-0.4-0.6-0.5-1c-0.1-0.2-0.1-0.5-0.2-0.7
	c-0.1-0.3,0-0.7-0.2-1c-0.5-1-1.2-1.8-1.8-2.8c-0.1-0.2-0.1-0.3-0.2-0.5c-0.1-0.2-0.2-0.4-0.3-0.6c-0.3-0.3-0.7-0.4-0.9-0.7
	c-0.2-0.3,0-0.5,0-0.8c0-0.2,0-0.5-0.1-0.8c-0.1-0.3-0.4-0.5-0.6-0.7c-0.1-0.1-0.2-0.1-0.3-0.2c0-0.1-0.1-0.2-0.1-0.3
	c0-0.4,0.6-0.6,0.4-1c-0.1-0.2-0.6-0.3-0.8-0.5c-0.3-0.3-0.4-0.7-0.6-1.1c-0.1-0.2-0.2-0.3-0.2-0.5c-0.1-0.3-0.2-0.7-0.2-1
	c0-0.4,0.2-0.8-0.1-1.2c-0.2-0.3-0.5-0.6-0.9-0.7c-0.1,0-0.3,0-0.4,0c-0.5,0-0.7,0-1-0.4c-0.6-0.7,0.4-1.8-0.4-2.2
	c-0.5-0.1-0.9-0.3-1.4-0.4c-0.4-0.2-0.7-0.4-1.1-0.6c-0.3-0.1-0.8-0.3-1.1-0.3c-0.4,0-0.8,0.2-1.1,0.3c-0.2,0.1-0.6,0.1-0.9,0.1
	c-0.6,0-0.7-0.5-1.4-0.3c-0.5,0.1-0.6,0.7-1,0.9c-0.3,0.1-0.7-0.4-1.1-0.2c-0.3,0.1-0.5,0.4-0.7,0.7c-0.3,0.3-1.1,0.8-1.5,0.9
	c-0.2,0-0.9,0-1.2,0c-0.5-0.1-0.7-0.5-1.4-0.2c-0.2,0.1-0.5,0.3-0.7,0.5c-0.2,0.2-0.4,0.5-0.7,0.7c-0.3,0.1-0.9,0.1-1.2,0.1
	c-0.3,0-0.6-0.1-0.9,0.1c-0.1,0.1-0.3,0.2-0.4,0.3c-0.2,0.2-0.4,0.7-0.8,0.7c-0.5,0.1-0.7-0.8-1.4-0.7c-0.3,0-0.7,0.1-0.9,0.3
	c-0.3,0.2-0.5,0.5-0.9,0.6c-0.4,0.1-0.7-0.1-1,0.1c-0.3,0.2-0.5,0.8-0.8,0.9c-0.6,0.3-0.9-0.2-1.4-0.1c-0.5,0-0.9,0.6-1.3,0.9
	c-0.3,0.2-0.5,0.3-0.8,0.6c-0.4,0.4-0.2,1-0.4,1.4c-0.3,0.7-0.9,1.2-1.2,1.9c-0.1,0.2,0,0.4,0,0.6l-0.1,0.6
	c-0.1,0.3-0.4,0.6-0.5,0.9c0,0.4,0.1,0.7,0.1,1.1c0,0.3-0.1,0.5-0.2,0.8c0,0.2,0,0.4,0,0.6c0,0.2,0,0.4,0,0.5c0,0.4,0.2,0.8,0.2,1.2
	c0,0.7-1,0.9-1,1.6c0,0.4,0.2,0.7,0.3,1c0.1,0.3,0.2,1.4,0.2,1.7c-0.1,0.3-0.3,0.6-0.4,0.9c0,0.4,0.2,0.6,0.1,1
	c-0.2,0.4-0.6,0.6-0.7,1c-0.1,0.4,0.1,0.8-0.1,1.1c-0.1,0.1-0.1,0.2-0.2,0.3c-0.1,0.3-0.2,0.6-0.4,0.8c-0.1,0.2-0.2,0.3-0.4,0.5
	c-0.2,0.3-0.3,0.6-0.4,1c-0.1,0.2-0.1,0.4-0.2,0.6c-0.1,0.6,0,0.8,0.5,1.1c0.1,0.1,0.2,0.1,0.3,0.3c0.1,0.4-0.2,0.6-0.2,0.9
	c0,0.2,0.2,0.3,0.3,0.4c0.1,0.2,0.2,0.6,0.3,0.9c0,0.7-0.1,1.5-0.5,2c-0.2,0.3-0.6,0.5-0.7,0.8c0,0.5,0.5,0.6,0.5,1.1
	c0,0.3-0.1,0.7-0.2,1c-0.1,0.3-0.3,0.5-0.4,0.7c-0.1,0.3,0.1,0.6,0.1,1c0,0.4-0.3,0.7-0.4,1.1c-0.1,0.3,0.1,0.7,0,1
	c-0.1,0.3-0.3,0.5-0.4,0.7c-0.1,0.2-0.1,0.4-0.2,0.5c-0.2,0.4-0.4,0.9-0.5,1.3c-0.1,0.5,0.1,1.1,0.1,1.6c0,0.3-0.2,0.8-0.3,1.2
	c0,0.2-0.1,0.3-0.1,0.5c-0.2,0.6-0.8,0.7-0.9,1.3c-0.2,1.4,1.4,0.6,1.4,1.5c0,0.3-0.1,0.6-0.2,0.9c-0.1,0.2-0.2,0.4-0.3,0.5
	c-0.1,0.3-0.2,0.7-0.2,1v0.7c0,0.2-0.2,0.4-0.2,0.7c0,0.3,0.1,0.6,0.3,0.7c0.1,0.1,0.3,0.2,0.3,0.3c0.2,0.5-0.1,0.9-0.2,1.3
	c0,0.2,0,0.5,0,0.7c-0.1,0.3-0.3,0.6-0.5,0.8c-0.2,0.2-0.4,0.2-0.5,0.5c-0.2,0.5,0.3,0.9,0.3,1.4c0,0.3,0,0.7-0.1,1
	c-0.1,0.2-0.2,0.3-0.2,0.6c0,0,0,0.1,0,0.1c0.1,0.4,0.6,0.2,0.7,0.7c0.1,0.4-0.1,1-0.3,1.3c-0.2,0.4-0.5,0.7-0.4,1.1
	c0.1,0.6,0.6,0.6,1,0.9c0.2,0.1,0.3,0.4,0.3,0.6c0.1,0.4-0.2,0.8-0.5,1c-0.2,0.1-0.6,0.2-0.7,0.5c-0.2,0.5,0.5,0.6,0.6,0.9
	c0.1,0.3-0.2,0.5-0.3,0.8c-0.2,0.4-0.3,0.9-0.6,1.3c-0.3,0.4-0.7,0.1-1-0.1c-0.2-0.1-0.5-0.2-0.5-0.5c0-0.4,0.5-0.7,0.7-1
	c0.1-0.3,0.1-0.6,0.1-0.9c0-0.4,0.3-1.5-0.1-1.8c-0.3-0.2-0.7-0.1-1-0.3c-0.2-0.2-0.4-0.5-0.6-0.6c-0.1,0-0.2,0-0.2,0
	c-0.2,0.1-0.3,0.4-0.3,0.6c0,0,0,0.1,0,0.1c0,0.1,0.2,0.2,0.3,0.3c0.2,0.3,0.3,1,0,1.3c-0.1,0.1-0.3,0.1-0.4,0.1
	c-0.6-0.2-0.3-1-0.6-1.5c-0.3-0.5-0.8-0.7-0.8-1.4c0-0.3,0.1-0.5,0.2-0.8c0-0.2,0.1-0.5,0.1-0.7c0.1-0.3,0.2-0.6,0-1
	c-0.1-0.2-0.5-0.7-0.9-0.7c-0.2,0-0.4,0.1-0.5,0.2c-0.1,0.1-0.3,0.1-0.4,0.3c-0.1,0.2,0,0.6-0.1,0.8c0,0.1-0.3,0.4-0.3,0.4
	c-0.6-0.1-1-0.7-0.7-1.2c0.1-0.1,0.1-0.3,0.2-0.3c0.3-0.1,0.4,0.1,0.6,0.1c0,0,0,0,0,0c0.1-0.2,0.1-0.5,0.2-0.8
	c0.2-0.4,0.6-0.6,0.8-0.9c0.2-0.2,0.4-1,0.6-1.1c0,0,0.1,0,0.1,0c0.3,0.1,0.2,1.8,1,1.6c0.2-0.1,0.6-0.3,0.7-0.4
	c0.5-0.6-0.1-1.4-0.5-1.7c-0.3-0.2-0.6-0.3-0.9-0.5c-0.3-0.3-0.4-0.7-0.8-0.8c-0.5-0.2-1,0.2-1.2,0.6c-0.1,0.3-0.2,0.6-0.3,0.9
	c-0.1,0.2-0.4,0.8-0.7,0.3c-0.2-0.4-0.1-1-0.2-1.4c-0.1-0.3-0.3-0.5-0.3-0.9c0-0.3,0.1-0.6,0.1-0.9c0-0.4-0.2-0.7-0.2-1.1
	c0-0.3,0.2-0.5,0.2-0.8c0-0.5-0.5-0.8-0.6-1.2c0-0.2,0-0.3,0-0.5c0-0.4,0-0.8-0.1-1.2c-0.1-0.4-0.1-0.8-0.2-1.2
	c0-0.3,0.1-0.5,0.2-0.8c0.1-0.3-0.1-1,0.1-1.2c0.2-0.3,0.6-0.2,0.9-0.1c0.2,0.1,0.3,0.3,0.6,0.3c0.1-0.2,0.2-0.4,0.4-0.6
	c0.2-0.2,0.5-0.3,0.5-0.5c0.1-0.5-0.7-1.3-0.9-1.7c-0.2-0.3-0.2-0.6-0.5-0.9c-0.3-0.3-0.9-0.1-0.9-0.8c0-0.4,0.3-0.7,0.4-1
	c0-0.3-0.2-0.5-0.3-0.8c-0.1-0.4,0-1.1,0.1-1.5c0.1-0.2,0.3-0.5,0.4-0.8c0.1-0.2,0.2-0.4,0.3-0.6c0-0.1,0.1-0.3,0.1-0.4
	c0.1-0.4,0.4-0.7,0.4-1.1c0-0.3-0.1-0.7-0.4-0.8c-0.3-0.1-0.8-0.1-0.8-0.6c0-0.5,0.9-1,1.1-1.5c0.2-0.6-0.3-0.7-0.4-1.2
	c-0.1-0.3,0.1-0.5,0.1-0.8c0-0.3-0.1-0.5-0.1-0.8c0.1-0.6,0.9-0.5,1-1c0.1-0.3-0.1-0.8-0.1-1.1c0-0.3-0.1-0.5-0.1-0.8
	c-0.1-0.3-0.2-0.6-0.3-0.9c-0.1-0.2-0.1-0.4-0.2-0.5c-0.2-0.3-0.7-0.5-0.7-0.9c0-0.3,0.2-0.4,0.4-0.4c0.2-0.1,0.4-0.1,0.5-0.3
	c0.3-0.3,0.7-1.5,0.7-2c0-0.4-0.1-0.7-0.3-1c-0.1-0.1-0.1-0.3-0.2-0.4c-0.1-0.6,0.3-0.9,0.9-1c0.7-0.4,0.8,0.9,1.5,0.8
	c0.2,0,0.3-0.1,0.4-0.2c0.3-0.4-0.1-1.3-0.1-1.8c0-0.3,0.2-0.5,0.1-0.8c0-0.1-0.1-0.2-0.2-0.2c-0.6-0.1-0.5,0.5-0.7,0.8
	c-0.3,0.5-0.9,0.6-1.4,0.5c-0.6-0.1-0.7-0.7-0.5-1.2c0.1-0.2,0.1-0.3,0.3-0.4c0.4-0.2,0.5,0,0.8,0c0,0,0,0,0,0
	c0.5-0.3,0.7-1,0.4-1.6c-0.1-0.2-0.4-0.5-0.4-0.7c0.1-0.1,0.3-0.3,0.5-0.2c0.3,0,0.5,0.6,0.9,0.3c0.1-0.1,0.2-0.2,0.2-0.3
	c0,0,0,0,0,0c0.1-0.5-0.1-0.9-0.1-1.4c0-0.4,0.5-0.8,0.2-1.3c-0.3-0.5-1.2-0.5-1.3-1.2c0-0.4,0.4-0.7,0.7-1c0.2-0.2,0.3-0.4,0.5-0.6
	c0.2-0.2,0.5-0.4,0.6-0.7c0.2-0.9-0.9-1.3-1.4-1.7c-0.3-0.2-0.4-0.5-0.6-0.7c-0.4-0.4-0.9-0.6-1.3-1.1c-0.1-0.1-0.1-0.3-0.2-0.4
	c0-0.1-0.1-0.1-0.2-0.1c-0.3,0-0.5,0.3-0.7,0.4c-0.3,0.1-0.7,0.2-0.8,0.5c0,0.1,0,0.2,0,0.3c0.2,0.2,0.4,0.4,0.6,0.7
	c0.2,0.2,0.3,0.6,0.5,0.7c0.1,0.1,0.2,0.1,0.3,0.1c0.1-0.1,0.4-0.1,0.5-0.1c0.4,0,0.9,0.1,1,0.5c0,0.1,0,0.2,0,0.3
	c-0.1,0.1-0.6,0.5-0.8,0.6c-0.9,0.3-0.9-0.3-1.4-0.7c-0.2-0.1-0.5,0-0.7,0c-0.4-0.1-0.9-0.6-1-1c0-0.2,0-0.3,0.1-0.5
	c0.1-0.3,0.6-0.7,0.6-1c0-0.2-0.3-0.4-0.3-0.4c-0.2,0.1-0.3,0.2-0.5,0.3c-0.2,0.1-0.6,0.1-0.9,0.1c-0.5,0-0.7-0.6-1.2-0.1
	c-0.1,0.1-0.2,0.3-0.3,0.4c-0.1,0.4,0.3,0.9,0.6,1.1c0.2,0,0.3,0.1,0.5,0.1c0.5,0.1,0.7,0.5,0.5,1c0,0.1-0.1,0.4-0.3,0.4
	c-0.4,0.2-0.8-0.2-1.1-0.3c-0.1,0-0.3,0-0.4-0.1c-0.2-0.1-0.2-0.4-0.4-0.5c-0.2-0.1-0.5,0.1-0.7,0.1c0,0,0,0,0,0c0,0,0,0,0,0
	c-0.1-0.3-0.2-0.4-0.3-0.6c-0.1-0.2-0.2-0.5-0.3-0.7c-0.1-0.3-0.1-0.6,0-0.9c0-0.2,0.2-0.3,0.2-0.5c0.1-0.5-0.2-1.5,0.5-1.5
	c0.2,0,0.4,0,0.6-0.1c0.2-0.1,0.4-0.1,0.6-0.2c0.2-0.2,1.1-0.5,1.2-0.1c0.1,0.3-0.2,0.5-0.1,0.8c0,0.1,0,0.2,0.1,0.3
	c0.1,0.2,0.9,0.7,1.1,0.7c0.5,0,0.4-1,0.5-1.3c0.1-0.2,0.4-0.6,0.6-0.6c0.1,0,0.2,0,0.3,0c0.2,0.1,0.4,0.1,0.6,0.2
	c0.3,0.2,0.6,0.7,1,0.6c0.2-0.3,0.3-0.5,0.4-0.9c0.1-0.6-0.3-1.1,0.2-1.5c0.2-0.1,0.3-0.2,0.6-0.2c0.2,0,0.4,0.1,0.5,0.2
	c0.2,0.2,0.4,0.6,0.8,0.6c0.1-0.1,0.2-0.3,0.2-0.4c0.1-0.1,0.1-0.3,0.2-0.5c0.2-0.2,0.5-0.1,0.7-0.2c0.4-0.2,0.4-0.6,0.6-1
	c0.2-0.3,0.5-0.5,0.6-0.8c0.1-0.3,0.1-0.6,0.1-0.8c0.1-0.5,0.3-0.9,0.5-1.4c0-0.2,0.1-0.4,0.1-0.6c0.1-0.3,0.4-0.5,0.4-0.8
	c0-0.4-0.6-0.5-0.6-0.9c0.1-0.3,0.4-0.5,0.6-0.8c0.3-0.3,0.4-0.7,0.5-1.1c0.1-0.2,0.2-0.4,0.2-0.6c0-0.3-0.1-0.7-0.3-0.9
	c-0.4-0.4-0.7-0.4-0.7-1.1c0-0.2,0.2-0.4,0.3-0.6c0.1-0.4-0.2-0.8,0.1-1.1c0.3-0.3,0.8-0.3,0.9-0.8c0.2-0.7-0.5-1.3-0.5-2.1
	c0-0.4,0.2-0.7,0.4-1c0.1-0.2,0.2-0.4,0.3-0.6c0-0.6-0.7-1-0.5-1.7c0-0.2,0.2-0.6,0.3-0.7c0.2-0.2,0.5-0.3,0.5-0.6
	c0-0.1-0.1-0.3-0.1-0.4c-0.2-0.3-0.6-0.8-0.6-1.2c0.1-0.6,0.6-0.9,1.2-0.8c0.2,0,0.3,0.2,0.5,0.2c0.3,0,0.4-0.3,0.5-0.5
	c0.3-0.5-0.1-1.1,0-1.7c0-0.3,0.2-0.5,0.4-0.8c0.2-0.4,0.4-0.9,0.4-1.3c0-0.5-0.4-0.7-0.5-1.1c-0.2-0.4-0.2-0.9-0.3-1.4
	c-0.1-0.6,0-1.1,0-1.7c0-0.5,0-1.1,0.1-1.6c0-0.1,0.1-0.3,0.1-0.4c0-0.2,0.1-0.5,0.1-0.7c0-0.3,0-0.5,0-0.8c0-0.4,0.1-0.8,0.1-1.1
	c0.1-0.4,0.4-0.6,0.4-1c0.1-0.4-0.1-0.8-0.1-1.2c0-0.2,0-0.4,0.1-0.6c0.1-0.1,0.1-0.3,0.2-0.4c0.1-0.4,0.1-0.7,0.2-1.1
	c0.1-0.2,0.2-0.4,0.4-0.5c0.3-0.2,0.8,0,0.9-0.5c0.2-1.1-1.1-0.6-1.4-1.3c-0.2-0.3,0-0.7,0.3-1c0.1-0.1,0.2-0.1,0.3-0.2
	c0.1-0.1,0.2-0.4,0.2-0.5c0-0.7-0.9-0.9-1.1-1.4c0-0.1,0-0.2,0-0.4c0.1-0.5,0.7-0.3,1.2-0.4c0.1-0.1,0.2-0.2,0.3-0.2
	c0.2-0.3,0.3-1-0.3-1.1c-0.2,0-0.4,0.1-0.6,0.1c-0.6,0.1-1-0.3-0.9-0.9c0-0.1,0-0.1,0.1-0.2c0.1-0.1,0.2-0.2,0.3-0.2
	c0.1-0.1,0.3-0.1,0.5-0.1c0.3,0,0.6,0.2,0.8,0c0.1-0.1,0.1-0.2,0.2-0.3c0.1-0.3-0.1-0.6,0-0.9c0.1-0.1,0.2-0.2,0.3-0.3
	c0.2-0.2,0.5-0.5,0.6-0.8c0-0.1,0-0.1,0.1-0.2c0-0.3,0-0.9-0.3-0.9c-0.1,0-0.2,0-0.3,0c-0.2,0-0.4-0.1-0.6-0.3c0,0,0,0,0,0
	c0,0,0,0,0,0c-0.2-0.3-0.1-0.7-0.2-1c-0.2-0.5-0.8-0.8-0.8-1.4v0c0-0.2,0.1-0.5,0.2-0.7c0.5-0.9,1.3,0,2-0.2c0.2,0,0.3-0.1,0.3-0.3
	c0.1-0.2-0.1-1-0.2-1.2c-0.2-0.3-0.4-0.5-0.4-0.8c0-0.2,0-0.6,0.1-0.8c0.1-0.2,0.4-0.4,0.4-0.6c0-0.5-0.5-0.7-0.5-1.3
	c0-0.2,0-0.4,0.1-0.6c0.2-0.2,0.5-0.2,0.8-0.3c0.4-0.1,0.8-0.6,0.9-1c0.1-1-1.2-0.1-1.3-0.7c0,0,0,0,0,0c0-0.4,0.5-0.5,0.7-0.7
	c0.1-0.1,0.1-0.3,0.1-0.5c0.1-0.2,0.2-0.5,0.2-0.7c0.1-0.3,0.5-0.4,0.6-0.6C-42.8,215.7-42.8,215.3-42.5,215 M146.2,328.3
	c0-2.1,0-5.1,0.2-6.8c-0.3,1.1-0.9,2.3-2.6,6.4l-6.1,14.7h-1.8l-5.2-14c-1-2.6-1.5-3.8-2.5-7.1c0.2,1.2,0.2,2.4,0.2,4.2
	c0,3.6-0.1,6.8-0.2,11.3c-0.1,3.3,0,4.1,0.5,5.7c-0.8-0.1-1.6-0.2-2.5-0.2c-0.7,0-1.5,0.1-2.2,0.2c0.3-0.7,0.6-1.5,0.8-3.1
	c0.3-1.9,0.4-5.7,0.7-11.2l0.1-3.5c0.1-5.4-0.7-6-1.2-6.5c1.1,0.1,2.2,0.2,3.4,0.2c1.1,0,2.1-0.1,3.3-0.2c0.6,2.7,0.9,3.7,1.8,6.1
	l2.5,6.9c1,2.4,1.4,3.7,1.9,5.6c0.4-2.1,1.9-5.2,2.8-7.2l2.9-6.9c0.8-2,1.1-2.7,1.5-4.6c0.8,0.1,1.3,0.2,2.6,0.2
	c1.2,0,2.3-0.1,3.4-0.2c-0.6,1.6-0.8,2.1-0.9,5.3c-0.1,11-0.1,14.4,0.3,16.7c0.1,1.2,0.4,1.6,0.6,2.1c-0.9-0.1-1.8-0.2-2.7-0.2
	c-0.9,0-1.8,0.1-2.8,0.2c0.6-0.8,1-2.7,1-8V328.3z M160.1,340.2c-2.3,0-3.1-1.7-3.1-3.1c0-2.7,2-3.7,2.9-4c0.8-0.3,2-0.3,2.7-0.3
	c0.9,0,1.7,0.1,2.4,0.2c-0.1,2.4-0.2,4.1-1.7,5.8C162.6,339.5,161.6,340.2,160.1,340.2 M168.6,329.5c-0.1-2.1-0.2-3.8-2.2-5
	c-1.4-0.9-3.1-1-4.2-1c-3.8,0-6.6,1.3-8.1,2c0.7,1.3,0.9,1.7,1.1,3c1.4-1.8,4.1-2.9,6.3-2.9c3,0,3.6,2.2,3.6,4.4v0.9
	c-0.9,0-1.8,0-2.3,0c-1,0-5-0.1-7.5,1.9c-1.7,1.4-2,3.1-2,4.3c0,3.4,2.3,5.8,5.6,5.8c3.1,0,4.6-1.7,5-2.3c0.9-1,1.1-1.6,1.3-2.2v2.5
	c0,0.9,0,1.3,0.1,1.8c0.7-0.1,1.5-0.2,2.2-0.2c0.8,0,1.5,0.1,2.2,0.2c-1.1-1.4-1.2-2.2-1.2-4.7V329.5z M174.3,325.5
	c-0.8,0-1.6,0-2.8-0.1c0,0.4,0.1,0.8,0.1,1.2c0,0.4,0,0.8-0.1,1.2c1.2-0.1,2.1-0.1,2.7-0.1l-0.1,10.7c0,0.6,0,1.8,0.7,2.8
	c0.5,0.7,1.5,1.5,4.2,1.5c0.5,0,1,0,2.1-0.1c0-1.2,0.1-1.5,0.3-2.8c-0.4,0.2-1,0.3-1.6,0.3c-0.9,0-1.4-0.3-1.7-0.6
	c-0.5-0.6-0.6-1.6-0.6-3.3c0-2.8,0-5.6,0-8.4c0.8,0,1.9,0,3.5,0.1c-0.1-0.3-0.1-0.7-0.1-1c0-0.5,0.1-0.9,0.1-1.4
	c-1.6,0.1-2.6,0.1-3.5,0.1v-2c0-2.9,0.1-3.7,0.3-4.9c-1.8,0.7-2.3,0.8-4.1,1.1c0.4,0.8,0.4,1,0.5,3.6V325.5z M185.2,335.7
	c0,4.7-0.2,5.3-0.6,7c0.8-0.1,1.5-0.2,2.3-0.2c0.8,0,1.5,0.1,2.3,0.2c-0.5-1.6-0.6-2.5-0.6-5v-4.2c0-1.9,0.1-4.5,1.7-6.1
	c0.6-0.6,1.8-1.4,3.6-1.4c1.1,0,2.2,0.3,2.8,1.1c0.6,0.8,0.6,1.8,0.6,4.7c0,2.8-0.1,6.6-0.2,8.1c-0.1,1.3-0.3,2-0.5,2.7
	c0.7-0.1,1.4-0.1,2.1-0.1c0.8,0,1.6,0.1,2.4,0.1c-0.4-1.2-0.5-1.9-0.5-5.2V330c0-1.9,0-2.5-0.2-3.2c-0.8-3.3-4.2-3.3-5-3.3
	c-3.3,0-5.3,1.2-6.9,4v-2.1c0-1.6,0-4,0.1-5.8c0.1-1.1,0.1-1.5,0.3-2.5c-2.3,1-3,1.2-5.3,1.5c0.9,0.6,1.1,1,1.3,3.1
	c0.1,2.3,0.2,3.8,0.2,6.4V335.7z"/>
<path id="XMLID_9_" d="M-126.7,255.7h5.6l17.9,25.2l17.9-25.2h5.6v43h-6.8v-30.9l-16.7,23.9l-16.7-23.9v30.9h-6.8V255.7z
	 M64.1,278.7h30.6v20h6.8v-43h-6.8v16.7H64.1v-16.7h-6.8v43h6.8V278.7z M127,298.7h6.7v-30.1l27.7,30.1h3.6v-43h-6.7v30.2
	l-27.7-30.2H127V298.7z M197.8,282.1l8.6-16.5l8.5,16.5H197.8z M182,298.7h7.2l5.6-10.9h23l5.6,10.9h7.3l-22.4-43h-4.3L182,298.7z
	 M244,293.2c7.1,4.4,15.8,6.8,24.1,6.8c12.1,0,19.3-6.5,19.3-14.1c0-9.1-7-13.8-21-13.8c-9.1,0-13.6-1.1-13.6-5.3
	c0-3.5,4.1-6.2,11-6.2c5.5,0,12.1,2,17.8,5.7l3.5-5.6c-6.6-4.1-13.6-6.2-21.1-6.2c-11.3,0-18,5.2-18,12.3c0,9.2,7.4,11,20.8,11.2
	c9.1,0.2,13.6,2.4,13.6,7.4c0,4.6-4.8,8.4-13,8.4c-6.2,0-13.7-2.2-20-6.3L244,293.2z M310.1,298.8h6.9v-43.2h-6.9V298.8z
	 M342.7,255.8v29.3c0,10.6,6.1,15,21.4,15c15.2,0,21.7-4.3,21.7-15v-29.3H379v27.5c0,8.5-3.2,10.5-14.7,10.5
	c-11.5,0-14.7-2.1-14.7-10.5v-27.5H342.7z M411.2,298.7h6.8v-30.9l16.7,23.9l16.7-23.9v30.9h6.8v-43h-5.6l-17.9,25.2l-17.9-25.2
	h-5.6V298.7z M467.6,258.4c0.2,0,0.3,0,0.6,0c1,0,1.3,0.5,1.3,1c0,0.7-0.6,0.9-1.3,0.9h-0.6V258.4z M467.6,260.9h0.6
	c0.7,0,1.1,0.3,1.2,1c0.1,0.7,0.2,1.2,0.4,1.4h0.9c-0.1-0.2-0.2-0.5-0.4-1.3c-0.1-0.8-0.4-1.2-0.9-1.3v0c0.6-0.2,1.1-0.6,1.1-1.3
	c0-0.5-0.2-0.9-0.5-1.1c-0.3-0.2-0.9-0.4-1.7-0.4c-0.7,0-1.1,0.1-1.6,0.1v5.4h0.9V260.9z M468.5,256.3c2.2,0,3.9,1.8,3.9,4.1
	c0,2.3-1.8,4.1-3.9,4.1c-2.2,0-4-1.8-4-4.1C464.5,258.1,466.3,256.3,468.5,256.3L468.5,256.3z M468.5,255.6c-2.7,0-4.9,2.2-4.9,4.9
	c0,2.7,2.2,4.9,4.9,4.9c2.7,0,4.9-2.1,4.9-4.9C473.3,257.7,471.2,255.6,468.5,255.6L468.5,255.6z M65,321.5
	c0.1,1.6,0.3,3.7,0.3,10.6c0,9.6-0.7,10.3-1,10.6c1-0.1,1.9-0.2,2.8-0.2c0.9,0,1.7,0.1,2.6,0.2c-0.3-0.5-0.4-0.8-0.6-2.1
	c-0.3-2-0.3-5.7-0.3-8.9c0-4.9,0.1-7.5,0.2-10.2h2.9c3.3,0.1,3.7,0.2,5.2,1.1c-0.1-0.6-0.2-1.3-0.2-2c0-0.7,0.1-1.4,0.2-2.1
	c-2.7,0.2-5.5,0.2-10.3,0.2c-4.9,0-8.6,0-9.6-0.2c0.1,0.8,0.2,1.5,0.2,2.2c0,0.6-0.1,1.2-0.2,1.9c1.1-0.8,1.7-1.1,4.7-1.1H65z
	 M80.2,335.7c0,4.7-0.2,5.3-0.6,7c0.8-0.1,1.5-0.2,2.3-0.2c0.8,0,1.5,0.1,2.3,0.2c-0.5-1.6-0.6-2.5-0.6-5v-4.2
	c0-1.9,0.1-4.5,1.7-6.1c0.6-0.6,1.8-1.4,3.6-1.4c1.1,0,2.2,0.3,2.8,1.1c0.6,0.8,0.7,1.8,0.7,4.7c0,2.8-0.1,6.6-0.2,8.1
	c-0.1,1.3-0.3,2-0.5,2.7c0.7-0.1,1.4-0.1,2.1-0.1c0.8,0,1.6,0.1,2.4,0.1c-0.4-1.2-0.5-1.9-0.5-5.2V330c0-1.9,0-2.5-0.2-3.2
	c-0.8-3.3-4.2-3.3-5-3.3c-3.3,0-5.3,1.2-7,4v-2.1c0-1.6,0-4,0.1-5.8c0.1-1.1,0.1-1.5,0.3-2.5c-2.3,1-3,1.2-5.3,1.5
	c0.9,0.6,1.1,1,1.3,3.1c0.1,2.3,0.2,3.8,0.2,6.4V335.7z M101.9,331.4c0.1-1.5,0.3-3.5,1.8-4.9c0.6-0.5,1.5-1,2.9-1
	c1.5,0,2.6,0.6,3.3,1.7c0.9,1.3,0.9,2.9,0.9,4.3H101.9z M114.2,333.4c0.1-1.1,0.1-1.7,0.1-2c0-2-0.5-4.1-1.7-5.5
	c-1.4-1.7-3.6-2.3-5.8-2.3c-3.1,0-5.2,1.2-6.3,2.4c-1.8,1.9-2.3,4.5-2.3,7.1c0,6.1,3.8,9.7,10,9.7c2.3,0,3.9-0.4,4.9-0.7
	c0.1-1.3,0.2-1.9,0.7-3.4c-0.8,0.8-1.8,1.9-5,1.9c-2.1,0-4.4-0.5-5.8-2.9c-0.9-1.6-1-3.1-1.1-4.3H114.2z M215.3,333.3
	c0,2,0,5.5-0.3,7.2c-0.1,1-0.4,1.5-0.7,2.1c2.3-0.1,3.2-0.2,7.4-0.2c4,0,4.8,0,7.1,0.2c0.2-1.7,0.2-2.3,0.6-4.2
	c-1,0.9-1.9,1.7-6,1.7c-2,0-3.2-0.2-4.3-0.4c-0.2-2.5-0.3-4.3-0.3-9c0-10.4,0.7-11.4,1.1-12.2c-0.9,0.1-1.7,0.2-2.7,0.2
	c-0.9,0-2.3-0.1-2.6-0.2c0.3,0.9,0.5,1.5,0.7,3.4c0.1,1.7,0.1,3.3,0.1,5.3V333.3z M233.8,331.4c0.1-1.5,0.3-3.5,1.8-4.9
	c0.6-0.5,1.5-1,2.9-1c1.5,0,2.6,0.6,3.3,1.7c0.9,1.3,0.9,2.9,0.9,4.3H233.8z M246.2,333.4c0.1-1.1,0.1-1.7,0.1-2
	c0-2-0.5-4.1-1.7-5.5c-1.4-1.7-3.6-2.3-5.8-2.3c-3.1,0-5.2,1.2-6.3,2.4c-1.8,1.9-2.3,4.5-2.3,7.1c0,6.1,3.8,9.7,10,9.7
	c2.3,0,3.9-0.4,4.9-0.7c0.1-1.3,0.2-1.9,0.7-3.4c-0.8,0.8-1.8,1.9-5,1.9c-2.1,0-4.4-0.5-5.8-2.9c-0.9-1.6-1-3.1-1.1-4.3H246.2z
	 M255.6,340.2c-2.3,0-3.1-1.7-3.1-3.1c0-2.7,2-3.7,2.9-4c0.8-0.3,2-0.3,2.7-0.3c0.9,0,1.7,0.1,2.4,0.2c-0.1,2.4-0.2,4.1-1.7,5.8
	C258.1,339.5,257.1,340.2,255.6,340.2 M264,329.5c-0.1-2.1-0.2-3.8-2.2-5c-1.4-0.9-3.1-1-4.2-1c-3.8,0-6.6,1.3-8.1,2
	c0.7,1.3,0.9,1.7,1.1,3c1.4-1.8,4.1-2.9,6.3-2.9c3,0,3.6,2.2,3.6,4.4v0.9c-0.9,0-1.8,0-2.3,0c-1,0-5-0.1-7.5,1.9
	c-1.7,1.4-2,3.1-2,4.3c0,3.4,2.3,5.8,5.6,5.8c3.1,0,4.6-1.7,5-2.3c0.9-1,1.1-1.6,1.3-2.2v2.5c0,0.9,0,1.3,0.1,1.8
	c0.7-0.1,1.5-0.2,2.2-0.2c0.8,0,1.5,0.1,2.2,0.2c-1.1-1.4-1.2-2.2-1.2-4.7V329.5z M268.9,337.9c0,1.8-0.1,3.5-0.5,4.8
	c0.8-0.1,1.5-0.2,2.2-0.2c0.7,0,1.4,0.1,2.1,0.2c-0.4-1.6-0.5-2.3-0.5-4.9v-3.5c0-1.5,0-3.8,1.2-5.5c0.9-1.3,2.3-1.9,3.4-1.9
	c0.4,0,0.6,0.1,0.9,0.1c0.2-1.9,0.5-2.8,0.8-3.4c-4.2,0.2-5.5,3.3-6.2,4.8v-2.2c0-1.4,0-1.4,0.1-2.8c-2.1,0.7-2.6,0.8-4.8,0.9
	c0.4,0.4,0.8,0.9,1,2c0.2,1.1,0.3,2.4,0.3,5.2V337.9z M297.4,330.6c0-3.3-0.1-4.3-1-5.4c-1.3-1.7-3.4-1.7-4.2-1.7
	c-3.5,0-5.3,1.1-6.8,4.1V326c0-1.2,0-1.9,0-2.7c-2,0.7-3.9,1-4.9,1c0.6,0.5,1,0.9,1.3,2.9c0.2,1.7,0.2,3.4,0.2,5.2v5.2
	c0,2.7-0.2,4.3-0.4,5.1c0.7-0.1,1.4-0.2,2.2-0.2c0.7,0,1.4,0.1,2.2,0.2c-0.6-1.6-0.6-3-0.6-5.6V335c0-3.4,0-5.8,1.5-7.4
	c1.2-1.4,3-1.5,3.8-1.5c3.4,0,3.4,2.4,3.4,4.3v5.3c0,4,0,5.1-0.5,7c0.8-0.1,1.5-0.2,2.3-0.2c0.8,0,1.5,0.1,2.2,0.2
	c-0.5-1.2-0.6-3.1-0.6-4.7V330.6z M301.8,319.7c0,1.2,1,2.1,2.1,2.1c1.1,0,2.1-0.9,2.1-2.1c0-1.1-0.9-2.1-2.1-2.1
	C302.7,317.7,301.8,318.6,301.8,319.7 M302.5,337.1c0,3.8,0,3.9-0.5,5.5c0.7-0.1,1.5-0.1,2.2-0.1s1.5,0.1,2.2,0.1
	c-0.5-1.7-0.6-2.2-0.7-5.5v-8c0-3.3,0.1-4.4,0.4-5.9c-2.2,0.8-2.7,0.9-4.9,0.9c0.4,0.4,0.6,0.6,0.8,1.5c0.3,1.2,0.3,3.6,0.4,5.8
	V337.1z M326.6,330.6c0-3.3-0.1-4.3-1-5.4c-1.3-1.7-3.4-1.7-4.2-1.7c-3.5,0-5.3,1.1-6.8,4.1V326c0-1.2,0-1.9,0-2.7
	c-2,0.7-3.9,1-4.9,1c0.6,0.5,1,0.9,1.3,2.9c0.2,1.7,0.2,3.4,0.2,5.2v5.2c0,2.7-0.2,4.3-0.4,5.1c0.7-0.1,1.4-0.2,2.2-0.2
	c0.7,0,1.4,0.1,2.2,0.2c-0.6-1.6-0.6-3-0.6-5.6V335c0-3.4,0-5.8,1.5-7.4c1.2-1.4,3-1.5,3.8-1.5c3.4,0,3.4,2.4,3.4,4.3v5.3
	c0,4,0,5.1-0.5,7c0.8-0.1,1.5-0.2,2.3-0.2c0.8,0,1.5,0.1,2.2,0.2c-0.5-1.2-0.6-3.1-0.6-4.7V330.6z M341.4,331.1
	c-0.4,1.6-1.7,2.8-3.6,2.8c-1.8,0-3.7-1.2-3.7-4.3c0-4.6,3.9-4.9,5.6-4.1C341.9,326.6,341.8,329.8,341.4,331.1 M335.2,342
	c1.6,0,5.6,0,7.2,0.5c0.8,0.3,2.2,0.9,2.2,2.5c0,1-0.6,2.2-1.9,2.9c-1.3,0.8-3.3,1-4.7,1c-2.3,0-3.9-0.5-4.7-1.6
	c-0.4-0.4-0.7-1-0.7-1.6c0-1.3,1.1-2.4,1.8-3.1L335.2,342z M332.7,335.5c-1.5,0.8-2.6,1.3-2.6,3.1c0,2.5,2.6,2.9,3.9,3.1
	c-1.5,0.8-2.5,1.3-3.3,2.3c-1,1.2-1.1,2-1.1,2.6c0,1.9,1.7,3.5,4.2,4.1c0.7,0.2,1.7,0.3,3.1,0.3c5.5,0,10.6-2.4,10.6-7
	c0-4.3-3.9-4.7-6.5-4.9l-3.4-0.3c-2.7-0.2-4.2-0.4-4.2-1.5c0-0.3,0.1-0.6,0.5-0.9c0.3-0.3,1.5-0.9,1.6-0.9c0.3,0.1,0.7,0.1,1.2,0.2
	c0.7,0.1,1.2,0.1,1.7,0.1c1.4,0,2.9-0.3,4.1-0.9c2.8-1.6,2.8-4.3,2.8-5.2c0-1.7-0.4-2.4-0.8-3c1.7,0.1,2.3,0.2,3.4,0.3
	c-0.1-0.3-0.1-0.6-0.1-1c0-0.5,0.1-0.9,0.1-1.5c-1.3,0.2-2.4,0.3-4.8,0.3c-0.2-0.1-0.5-0.2-0.8-0.4c-1.5-0.6-3-0.8-4.7-0.8
	c-2.4,0-4.3,0.7-5.5,1.7c-1.6,1.4-1.7,3.1-1.7,4.2c0,0.8,0.1,2.1,0.8,3.3c0.8,1.3,2,1.8,2.7,2.1L332.7,335.5z M371,318.3
	c-8.2,0-12.5,4.4-12.5,12.4c0,3.1,0.9,6.4,3.3,8.8c3.3,3.3,8,3.3,9.4,3.3c2.8,0,4.6-0.4,5.5-0.6c0.2-1.6,0.4-2.1,0.8-3.5
	c-0.8,0.6-2.3,1.9-5.7,1.9c-2.4,0-4.8-0.8-6.5-2.5c-1.7-1.8-2.7-4.7-2.7-7.8c0-2.6,0.7-5.4,2.1-7.1c1.3-1.6,3.7-2.7,6.3-2.7
	c1.4,0,2.7,0.3,3.6,0.8c0.9,0.5,1.3,1,1.7,1.6c0.3-1.6,0.4-2,1.2-3.5C374.8,318.3,372.9,318.3,371,318.3 M382.4,331.4
	c0.1-1.5,0.3-3.5,1.8-4.9c0.6-0.5,1.5-1,2.9-1c1.5,0,2.6,0.6,3.3,1.7c0.9,1.3,0.9,2.9,0.9,4.3H382.4z M394.8,333.4
	c0.1-1.1,0.1-1.7,0.1-2c0-2-0.5-4.1-1.7-5.5c-1.4-1.7-3.6-2.3-5.8-2.3c-3.1,0-5.2,1.2-6.3,2.4c-1.8,1.9-2.3,4.5-2.3,7.1
	c0,6.1,3.8,9.7,10,9.7c2.3,0,3.9-0.4,4.9-0.7c0.1-1.3,0.2-1.9,0.7-3.4c-0.8,0.8-1.8,1.9-5,1.9c-2.1,0-4.4-0.5-5.8-2.9
	c-0.9-1.6-1-3.1-1.1-4.3H394.8z M414.1,330.6c0-3.3-0.1-4.3-1-5.4c-1.3-1.7-3.4-1.7-4.2-1.7c-3.5,0-5.3,1.1-6.8,4.1V326
	c0-1.2,0-1.9,0-2.7c-2,0.7-3.9,1-4.9,1c0.6,0.5,1,0.9,1.3,2.9c0.2,1.7,0.2,3.4,0.2,5.2v5.2c0,2.7-0.2,4.3-0.4,5.1
	c0.7-0.1,1.4-0.2,2.2-0.2c0.7,0,1.4,0.1,2.2,0.2c-0.6-1.6-0.6-3-0.6-5.6V335c0-3.4,0-5.8,1.5-7.4c1.2-1.4,3-1.5,3.8-1.5
	c3.4,0,3.4,2.4,3.4,4.3v5.3c0,4,0,5.1-0.5,7c0.8-0.1,1.5-0.2,2.3-0.2c0.8,0,1.5,0.1,2.2,0.2c-0.5-1.2-0.6-3.1-0.6-4.7V330.6z
	 M420,325.5c-0.8,0-1.6,0-2.8-0.1c0,0.4,0.1,0.8,0.1,1.2c0,0.4,0,0.8-0.1,1.2c1.2-0.1,2.1-0.1,2.7-0.1l-0.1,10.7
	c0,0.6,0,1.8,0.7,2.8c0.5,0.7,1.5,1.5,4.2,1.5c0.5,0,1,0,2.1-0.1c0-1.2,0.1-1.5,0.3-2.8c-0.4,0.2-1,0.3-1.6,0.3
	c-0.9,0-1.4-0.3-1.7-0.6c-0.5-0.6-0.6-1.6-0.6-3.3c0-2.8,0-5.6,0-8.4c0.8,0,1.9,0,3.5,0.1c-0.1-0.3-0.1-0.7-0.1-1
	c0-0.5,0.1-0.9,0.1-1.4c-1.6,0.1-2.6,0.1-3.5,0.1v-2c0-2.9,0.1-3.7,0.3-4.9c-1.8,0.7-2.3,0.8-4.1,1.1c0.4,0.8,0.4,1,0.5,3.6V325.5z
	 M432.7,331.4c0.1-1.5,0.3-3.5,1.8-4.9c0.6-0.5,1.5-1,2.9-1c1.5,0,2.6,0.6,3.3,1.7c0.9,1.3,0.9,2.9,0.9,4.3H432.7z M445.1,333.4
	c0.1-1.1,0.1-1.7,0.1-2c0-2-0.5-4.1-1.7-5.5c-1.4-1.7-3.6-2.3-5.8-2.3c-3.1,0-5.2,1.2-6.3,2.4c-1.8,1.9-2.3,4.5-2.3,7.1
	c0,6.1,3.8,9.7,10,9.7c2.3,0,3.9-0.4,4.9-0.7c0.1-1.3,0.2-1.9,0.7-3.4c-0.8,0.8-1.8,1.9-5,1.9c-2.1,0-4.4-0.5-5.8-2.9
	c-0.9-1.6-1-3.1-1.1-4.3H445.1z M449,337.9c0,1.8-0.1,3.5-0.5,4.8c0.8-0.1,1.5-0.2,2.2-0.2c0.7,0,1.4,0.1,2.1,0.2
	c-0.4-1.6-0.5-2.3-0.5-4.9v-3.5c0-1.5,0-3.8,1.2-5.5c0.9-1.3,2.3-1.9,3.4-1.9c0.4,0,0.6,0.1,0.9,0.1c0.2-1.9,0.5-2.8,0.8-3.4
	c-4.2,0.2-5.5,3.3-6.2,4.8v-2.2c0-1.4,0-1.4,0.1-2.8c-2.1,0.7-2.6,0.8-4.8,0.9c0.4,0.4,0.8,0.9,1,2c0.2,1.1,0.3,2.4,0.3,5.2V337.9z"
	/>
</svg>
